<?xml version="1.0" encoding="utf-8"?>
<!-- Generator: Adobe Illustrator 23.0.1, SVG Export Plug-In . SVG Version: 6.00 Build 0)  -->
<svg version="1.1" xmlns="http://www.w3.org/2000/svg" xmlns:xlink="http://www.w3.org/1999/xlink" x="0px" y="0px"
	 viewBox="0 0 595.3 841.9" style="enable-background:new 0 0 595.3 841.9;" xml:space="preserve">
<style type="text/css">
	.st0{fill:#DE9986;}
	.st1{fill:#2F2A29;}
	.st2{fill:#F6FFBF;stroke:#F8FFE9;stroke-miterlimit:10;}
	.st3{stroke:#000000;stroke-miterlimit:10;}
	.st4{fill:#F6FFBF;}
	.st5{fill:#FFD694;}
	.st6{fill:#D42900;}
	.st7{fill:none;stroke:#000000;stroke-miterlimit:10;}
	.st8{fill:#E08B73;}
	.st9{opacity:0.15;fill:#FFFFFF;enable-background:new    ;}
	.st10{fill:#AA2517;stroke:#000000;stroke-miterlimit:10;}
	.st11{fill:#AA2517;}
	.st12{opacity:0.2;fill:#FFFFFF;enable-background:new    ;}
	.st13{opacity:0.2;enable-background:new    ;}
	.st14{fill:none;stroke:#77AA00;stroke-miterlimit:10;}
</style>
<g id="Lager_1">
	<g id="fejs">
		<path id="hals" class="st0" d="M344,195l-24.2,22.8L296.9,195l-3.8,13.1l49.8,148c4.8,43-2.8,98.7-29.8,97.5l119.7,21.3
			c-29.9-8.2-47.7-74-54.9-162.4C376,281.3,370.9,232.9,344,195z"/>
		<path id="face" class="st0" d="M115.6,322.4v-29l67.7-56.7l19.9-87.3l58.5,60.6l7-9c-1.1-8.9-22.2-23.7-35.9-51.6l-8.5-21.6
			l11.6-14.7l21.1,0.6l12.1,15.6l-2,34.7l10.7,13.8l22,13.5l2.1,10.9l-2.1,6.4c4.6,0.1,7.9,3.6,8.7,13v15.1
			c2.2,8.1,7.1,11.2,15.3,8.4c4.4-3.4,7-6.7,9.7-8.4c8.8-3.3,16.4,7.3,16.3,19.7c1.5,9.2,0.7,21.7,0.6,33.2l-3.5,59.9
			c-9.6,15.9-19.1,32-41.1,2.2c-3.5-4.8-5.7-9.8-6.1-15.1l-7.5-68.3c-48.3,15.4-55.9,90.1-3.7,95.5c-18.6-6.1-34.3-9.6-36.3-0.4
			l-14,24.5l-37-44.9L115.6,322.4z"/>
		<path id="Frissa" class="st1" d="M146.2,43.5c15.7-29.2,34.8-35.1,57.5-16.2c11.1,8.3,21,18.5,29.8,30.6
			c41.9,66.5,82.1,118.8,116.3,125.1c-6.6,16.1-15.9,28.7-30,34.7l-19.4-14c2.9,1.3,1-3.1,0-6.5c-13-9.5-39.2-19.1-33.4-33.4
			c-0.6-12.3-0.6-24.2,2-34.7c-1.9-8.9-6-15.3-15.2-16.2l-15.3-0.5c-7.7,1.4-4.6,9-14.3,15.2c6.5,10.5,12.5,20.1,11.2,30.1
			l28.4,30.6c8.2,8.3,5.8,15.2-2.2,21.4L203,149.1c0.8,20.7-0.1,38.1-1.5,49.5c-4,16.5-8.6,31.8-15.3,43.6
			C177,257,162.8,269,143,279.1c-17.6,8.7-25.5,15.8-27.3,43.3c-1.6,29,15.2,58.3,28.1,87.5c2.3,4,3.1,11.1,0,16.5
			c-10.5,18.1-24.9,27.4-48.8,27.3c-12.4-1.6-22.9-8.3-31-21.8c10.2,7.4,21.9,8.6,34.7,4.9c-11.8-3.4-21.7-9.3-28.2-19
			c16.1,3.2,27.8,3.2,32.3-2.2c-16.7-1.8-30.8-8.2-40.3-22.9c37,7.9,59,4.3,37.1-32.5l-19.7-34.6c-1.8,1.8-2.1,5.2-1.9,9.1
			c-3.6-7-5.4-12.6-2.9-14.4l-4.9-8.2l-13.5-26.2c-1.6-2.8-2-7.8-1.4-14.8c-8.1-6.9-12.9-11-13.3-11.4c-12.4-10.2-29.5-40.4-35-58.3
			c-2.2-6.9-4.1-13.6-4.6-18.7c-0.9-5.9-1.3-14.9-1.5-24.7v-14.4C2,123.9,6.4,105.1,17,93.3C38.9,66.2,64.9,48,98.9,46.4h24.9
			c-8-9.2-18.1-16.5-31.4-20.9c15,1,28.6,4.6,37.8,16.5c-5.3-19.5-11-37.5-17.5-52.4c13.9,16,23.1,32.9,26.6,51.1
			c0-16.1,6.7-29,18.2-39.7C151.1,14.7,147.4,28.9,146.2,43.5z"/>
		<path id="öra" class="st0" d="M299.7,208.6c5-7,2.7-13.7-4.7-20.2L280.3,176c-3.2-2.3-7.1-1.2-11.1,0c7.8-1.1,4.8-5.8-2.2-11.9
			l2-34.7c2.7-30.6-44.8-28.6-44.8-1.5c-0.1,8.9,1.9,10.3,2.6,13.1l7.2,15.2c2,4.7,8.4,10.4,14.7,16.1l16.8,18.2
			c3.5,4.1,4.5,8.4,2.1,13.1C268,243.1,290.7,220.4,299.7,208.6z"/>
		<circle id="bottom_eye" class="st2" cx="168.5" cy="342.9" r="28.6"/>
		<circle id="bottom_iris" class="st3" cx="172.6" cy="333" r="18.6"/>
		<circle id="top_eye" class="st2" cx="218.2" cy="254.8" r="28.6"/>
		<ellipse id="top_iris" cx="218.2" cy="245.2" rx="18.6" ry="18.6"/>
		<polyline id="glimt_öga_topp" class="st4" points="213.5,267.8 200.5,265.2 211.4,251.7 		"/>
		<polygon id="glimt_öga_bott" class="st4" points="153.9,353.9 164.9,340.4 166.9,356.5 		"/>
		<path id="nose" class="st0" d="M115.6,322.4c6.7,6.3,15.6,10.3,25.1,13.6c5.8-16,18.2-23.8,27.7-24.2
			c21.3,14.4,32.5,48.3,40.3,64.9c8.6,21.2,21.8,30,38,30.6c24.8-2,15.1-23,5.4-43.9c-15.3-33-16.6-58.9-8.7-80
			c-3,14.6-2.8,25.1,1,30.9c-1.6-9.8,3.8-20.1,14.3-30.9c8.4-2.6,2-10.2-8.2-19.1c-22-15.4-40-8.4-53.6,22
			c0.6,21.3,7.1,36.8,16.9,49l35.7,45.5c-3.8-6.1-7.6-12.1-15.3-14.8l-10.7,1c-7.6-3.6-19.8-27.4-32.4-52.6
			c-11.2-5.3-16.5-15.6-15.8-30.9l-17.1,24.3L115.6,322.4z"/>
		<path id="bottom_brow" class="st1" d="M144,363.3c-6-10.9-3.7-29.3,0-49C125.8,325,121.3,339.9,144,363.3z"/>
		<path id="top_brow" class="st1" d="M183.8,261.2c4.4-21.8,17.7-38.1,39.8-49C183.8,214.5,170.5,230.8,183.8,261.2z"/>
		<polygon id="inuti_mun" class="st3" points="289,270.9 258.8,296.1 261.9,339.1 284.2,361.3 299.7,357 		"/>
		<path id="tänder" class="st5" d="M286.1,361c-11.4,3.1-19.6-6.9-14.3-9.4c-14,0.7-18.1-11.5-5.8-12.8
			c-13.9,1.3-15.4-18.9-2.7-19.4c-10.7,0.2-14.6-17.6,2.3-18c-13.2,0.3-7.1-14.3,9-14.3h6.9l0.4,2.5l-4.2,12.1l-9.6,0.3l10.1,1.7
			l0.1,15.5l-11.4,0.3l12.1,1.9l0.1,10.6l-9.2,5.1l10.7-2l5.3,11.9l-8,2.5l10-1l1.5,11.6L286.1,361z"/>
		<path id="mun_2_" class="st6" d="M282,365c5.2,1.6,10.2-1.7,4.8-4.8c-34.2-22.7-33-66.7,1.7-85.5c-10.8,34.9-9.4,65.8,11.2,90.6
			c7.1,4,10.4,2.7,9.9-4.1l-17.4-93.1C244.6,270.7,235.9,350.2,282,365z"/>
	</g>
	<g id="linjer_face">
		<path id="näsa" class="st7" d="M115.6,322.4c6.7,5.6,15,10.3,24.3,14.4c5.6-14.9,15.2-22.2,28.6-22.5c24.3,7.8,40,72.2,52.7,82
			c19.5,17,42.2,12.7,41.3-3.7c0-19.4-41.4-72.8-20.7-104"/>
		<path class="st7" d="M242.3,308.7c4.3-10,9.5-17.8,15.4-24.1c9.8-15-19.7-34.2-39.5-25.4c-12.2,6.5-17.9,19.1-20.7,34.4
			c-0.4,24.3,15.3,43.3,33.1,62.9"/>
		<path class="st7" d="M176.9,281.6c-1.5,7.6-1.7,13.9,0.5,17.7c13.2,10.8,22.5,20.9,25.3,32.5c2.4,10.8,6.2,17.9,10.6,23.5
			c7,9.5,16.9,6.3,24.8,12.4"/>
		<path class="st7" d="M139.9,336.8c1.5,44.9,49.8,42.4,56.1,11.1"/>
		<polyline class="st7" points="150.9,316.1 170.2,313 173.9,316.1 		"/>
		<path class="st7" d="M252.2,363.3c0.2-5,6-6.5,16.9-4.9c-31-26.6-17.9-87.6,23-90.2l17.4,93.1c0.7,6.8-2.7,8.1-9.9,4.1
			c-4-3.9,0,0-6.6-8.9"/>
		<path class="st7" d="M201.2,278c-24.6-19.4-9-55.3,18.1-52.1c21.7,0.4,31.1,19.3,26.8,35.4"/>
		<path class="st7" d="M269.2,358.4c15.5,9.3,23.9,7.3,19,2.8c-28.9-21.8-33.9-46.5-15.2-74.1c5.4-5.9,10.5-9.9,15.5-12.3"/>
		<path class="st7" d="M254.1,117.5c-35.9-10.6-25.6,33.4,4.7,56.2c-4.7-17,27.1,14.7,8.9,7.5c14.7,22.7,28.8,24.6,25.4,17"/>
		<path class="st7" d="M308.4,354.9c12.4,16.8,24,18.4,34.4,1.2l7.8-90.1c1.5-22.8-0.7-39.5-22-25.2c-15.6,14-29,4.3-19-14.6
			c2.4-7,0-13.9-7.3-20.9c-3.9,11.4-13,10.7-26.6,0c-22.4,14.1-32.3,31.2-17.8,54.2"/>
		<path class="st7" d="M219.7,175.8c5.9,37.2,18.4,44.7,34.4,36.4"/>
		<path class="st7" d="M342.8,356.1c3.6,55.7-4.2,87.9-23.4,96.6"/>
		<path class="st7" d="M344,195c53.8,70.7,17.4,219.4,81.3,276.6"/>
	</g>
	<g id="kropp">
		<path id="legs" class="st8" d="M280.6,577.3c-3.4,44.1-83.3,106-91.9,174.5c-5.8,44.3,3.7,69.5,8.2,98.7h36.9
			c5-164.8,152.4-166.1,152.4,0h67.4c-14-61.6,3.1-58.2,4.4-90.9c6.8-72.2-40.9-100.4-49.4-176.7L280.6,577.3z"/>
		<path id="body" class="st8" d="M502.7,522.9l-10-41.6l-44.6-5.7l-204.4,12.3l-1.5,1.3l8.4,43.2c2.6,9.8,15.6,5.9,9.2,6.9
			l-0.3,15.1c0.2,5.6,3.3,7.5,9.6,5.6v11.5c0.2,5.6,2.3,7.8,6.8,5.9c17.1,62.5,10.6,109.1,13.5,176.7c1.8,33.5,39.6,34.5,52.6,3.8
			c29.4-63.7,58.8-127.4,82-146.3c5.6,14.8,14.6-8.9,15.3-20.2c6.4,8.4,14.5-8.2,22.5-24.8C475.1,582.2,477.9,533.6,502.7,522.9z"/>
		<path id="bröst_x2B_vänsterarm" class="st8" d="M460,477.7l-180.8-32.2c-20.4-29.6-69.5-22.1-82.2,24
			c-3.1,20.9-19.2,35.1-37.8,45.5c-30.7,15.8-88.8,49-71.5,60.3c-40.3-24.5-44.4,56.2-0.5,30.1c-14.3,49,43.9,74.5,65.9,113.9h14.8
			l12.3-13.3l-4.9-3.6c-23.2-35.7-24.8-82.7-55.9-100.6c40.8,37.8,44.4-40.3,69.7-62.8c15.1-9.7,43.6-20.9,29.9-34.2
			c18.9,19.9,34.7-20.9,43.7-15.8c13.5,6.1,54.4,60.3,83.5,24.5l11.2-13.8l99.6,16.9L460,477.7z"/>
		<path id="vänster_hand" class="st8" d="M153.1,719.3l27.1-13.3c7.8-4.3,6.8-8,10.2-13.1c2.7-5.5,9.6-4,12.9,3.7
			c3.2,11.9,10.6,27.9,23.5,27.9c13.6-1.4,5.5,26.2-13.6,10.2l-15.3-15.5c-4,9.2-6.8,18.4-8.4,27.5c-1.8,8.3-2.5,17.9-2.5,28.1
			l-37.7-36.1C139.7,732.3,144.9,721.9,153.1,719.3z"/>
	</g>
	<g id="Linjer_kropp">
		<path class="st7" d="M346.9,457.6l-67.6-12C254.1,412.9,207,427,196,474.9c-9,44.7-120.9,70.2-110.1,98.7
			c-36.9-17.5-42,54.2,1.4,31.8c-16.8,41.9,42.4,75.1,65.9,113.9c-12.3,5.6-12.6,13.2-3.9,19.6L187,775c1.1-22.6,3.9-42.4,11-55.7
			l20.2,18.8c9.6,5.7,27-5.8,8.8-13.5c-10,0.4-17.1-9.5-22.6-25c-5.8-14.2-11.6-12.1-17.3,0.3l-6.7,6.2
			c-20.9-11.7-27.1-87.3-64.6-109.8"/>
		<path class="st7" d="M252.2,467.5c-13.8,17-30.6,24.4-50.6,22.5c23.5,32.4-125.1,70.5-80.7,106.2"/>
		<path class="st7" d="M130.9,610c29.1,13.8,41.6-60.5,58.2-71c25.7-11.9,36-20.9,32.7-30.5c9.8,6.2,22.3-2.5,36.1-19
			c3.5-2.8,8.4,0.9,13.7,6c44.4,44.1,62.7,31.1,79,13"/>
		<path class="st7" d="M244.9,502.9c3.3,23.8,6.2,37.4,14.9,36.4c-2.1,18.7,1,25.4,9.3,20.7c0.2,15.7,2.1,23.1,6.8,17.4l5.6,24.1"/>
		<line class="st7" x1="266.5" y1="526.6" x2="259.9" y2="539.3"/>
		<line class="st7" x1="275.7" y1="549.5" x2="269.2" y2="559.9"/>
		<line class="st7" x1="281.6" y1="565" x2="276" y2="577.3"/>
		<path class="st7" d="M278.8,589.3c-12.3,30.3-47.5,70.2-73.2,113.8"/>
		<path class="st7" d="M186.9,774.9c-0.2,22.7,3.5,46.4,9.1,70.5"/>
		<path class="st7" d="M288.5,694.2l0.3,38c-33.1,14.9-48.9,54.9-54.7,109.6"/>
		<path class="st7" d="M361.6,715.8l-11.9,26c-16.9,50-64.3,56.7-60.9-9.5"/>
		<path class="st7" d="M349.7,741.8c25.1,24,34.6,59.3,36.3,100.1"/>
		<path class="st7" d="M417.1,621.9"/>
		<path class="st7" d="M416.3,619.2c16.5,46.9,36.6,70.4,42.4,113c3.7,48.3-19.3,66.2-6.9,109.6"/>
		<path class="st7" d="M346.9,543.1c-37.2-12.8-54,26.5-60.5,92"/>
		<path class="st7" d="M388,655.9c3.5-40.7,16.4-73.2-3.4-103.8"/>
		<line class="st7" x1="354.3" y1="554.7" x2="335.5" y2="652.4"/>
		<path class="st7" d="M316.6,573.6c-4.5,18.4,8.3,18.3,33,5.7c21,21.8,31.1,21.9,32.8,5.5"/>
		<path class="st7" d="M309.4,611.5c0.2,9.7,13.5,9.9,32.8,5.8c19.6,13.9,28.9,13.2,32.5,4.7"/>
		<path class="st7" d="M303.8,642.2c-3.2,12.7,8.6,13.3,32.9,4.1c21,16.3,32.9,19.5,33.5,6.2"/>
		<line class="st7" x1="188.9" y1="723.3" x2="194.1" y2="728.3"/>
		<line class="st7" x1="179.4" y1="732.3" x2="190.3" y2="743.2"/>
		<path class="st7" d="M168.7,741.8l9.4,8.4c6.5,2.8,9.3,5.6,9.9,8.4"/>
	</g>
	<g id="hairlights">
		<path class="st9" d="M191.8,146.3c-48.5-15.5-87.7,14-110.7,121.5c-5.3-30.6-4.1-64.7,10.7-106.2c-21.4,18.2-30.5,52.1-36,90.7
			c-9.9-26.8-11.5-61.6,0.5-109.5c-17.1,18.7-22,49.9-20.8,87.5C1.4,133.2,20.9,70.6,122.2,60.5c-39.8,15.6-71,33.8-80.4,58.8
			c28.6-28.5,60.9-47.2,98-52.2c-40.5,28-72.3,57.3-72.5,91.9c22.1-40.2,50.9-71.4,89.9-88.9c-29.8,31.7-52.2,65.1-56.2,102.3
			C133.4,104.3,163.9,87.8,191.8,146.3z"/>
		<path class="st9" d="M99.5,274.8c22.1-81.3,49.3-131.4,89.4-102.7C175.5,221.8,144.9,255.3,99.5,274.8z"/>
		<path class="st9" d="M172.6,177.8c-20.4-0.9-38.1,23.6-53.1,73.5c11.4-22.4,22.4-43.5,28.6-44.5c-12.4,16.1-19,31.3-19.5,45.3
			C136.6,229.5,152.3,204.4,172.6,177.8z"/>
		<path class="st9" d="M256.8,103.9C217.9,45.5,179.4-9.4,153.9,44.7c23.4-30,47-9.8,70.7,23c-37.1-33.3-60.3-40-67.3-15.3
			c32.7-19,50.7,15.2,66.3,58.2c2.8-4.7,9.3-3.4-10.1-44c15.7,11.6,25.7,23.7,28.5,36.4l-10.6-32.2L256.8,103.9z"/>
		<path class="st9" d="M271.9,164c28.7,27.5,49.3,43.7,56.5,41.3l-14.9-14.2c9.1,3.4,17.7,5.8,24.2,4.4
			c-17.2-3.8-29.3-16.5-40.1-31.3c6.5,10.6,26.2,16.6,44.6,23c-25.9-12.4-47.7-31-65.2-55.7c7.3,12.6,14.7,24.5,22.6,30.1L273,142.9
			c11.7,19.2,23,33.1,33.5,39.2C297.2,179.5,285.6,173.4,271.9,164z"/>
		<path class="st9" d="M112.6,377.1C91,339.4,66.9,299.7,64.3,278c0,0,14.5,41.5,27.6,46.4l-6.1-48.7
			C107,376,168.5,424.1,115.6,442.5c8.1-5.1,12.5-10.3,13-15.5c-10.5,4.9-22.5,6-36.7,0.9c15.7-1.2,26.7-5.5,30.3-14.5
			c-7.3,3.4-20.6-2.6-34.2-9C121.5,413.5,129.9,404.5,112.6,377.1z"/>
	</g>
</g>
<g id="tröja">
	<path class="st10" d="M425.3,471.6c-2.6,82.1-127.6,66.4-105.9-18.9l-40.1-7.1c-29.7-30.4-61.1-20-78.8,13
		c-9.1,20-35.9,36.2-63.9,52.1c27.5,7.3,46.3,19,51.2,37.5c20.2-9,38.2-21,52.9-37.5c31.7,194.6-55.9,105.2-35.2,192.4l-7.6,16.2
		c-40.7,31.7,2.3,38.7-29.5,141.4c150.5-27.1,282.4,36.8,308.5-3.1c-42.7-212.5,14.9-96.6,15.7-376.3L425.3,471.6z"/>
</g>
<g id="Lager_3">
	<path id="höger_arm" class="st8" d="M503.5,522.2L485.6,541c23,15.5,44.4,10.8,64.8-6.1c26-24.9-17.7-75.2-51.1-53.6
		c-15.2-19.1-37.5-2.9-59.7,12.4c-8,6.1-36.3-10.2-46.3,1.4c-8.9,10.4-6.3-110.3-17.9-132.1c7,3.1,4-5.2,0-14.6
		c-2.7-7.7-2.5-23.6-2.5-38.6c-0.2-5.6-7.3-5.3-8,0v-13.3c0.2-5.5-10.9-6-10.9,0v-4.3c0.2-6.8-12.4-6.4-12.4,0v-30.3
		c0-14.6-18.2-18.9-15.8,0c4.9,37.5,9,72.7,1.5,76.9c-4.9,2.4-10.8,0-16.5-1.7c-16.4-5-28,0.5-38.5,8.3c-10,7.5,6.3,6.2,19.7,2.9
		c15.4-3.9,19.5-4.3,23.7,1.5c4.3,9,12.9,5,20.6,3.9c10.1-2.6,17.5,22.6,25.4,43.7c7.5,23.4-16.2,130,2.7,137.9
		c-16.5,18,16.9,30.3,22.1,11.9C415.8,568.1,459.2,512.3,503.5,522.2z"/>
	<path class="st7" d="M372.5,539.5c7.5,0.4,11.8,3.3,14,7.8c25,19.2,70.5-30.8,116.2-24.4c-20.7,5.9-27.3,57.7-40.3,44.3
		c-9,18.5-17.3,31.6-23,24.2c-5,21.5-10,31.5-15.3,20.2c-9.4,7.9-18.4,20.9-27.2,35.8"/>
	<path class="st7" d="M348,331.8c1.8-7.5-5.6-16.5-4.3-22.6c1.1-5.8,0.4-11.4-2.1-17v-30.3c0-16.8-17.9-16.8-15.8,0
		c5.2,45.2,8.4,82,1.5,76.9c-4.5,1.5-34.2-9.7-51.5,4.2c-8,3.8-9.5,6.8,0,8.6c8.5-1.5,17.3-6,33.9-6c15.6,15.9,21.9,6,33.2,10.4
		c41.8,36.9-1.8,166.3,21.6,179.3c-14.6,18.9,17,29.1,22.1,11.9"/>
	<path class="st7" d="M341.6,292.2c2.1-8.8,15.5-5.4,13,2.2c2.5-5.8,10.5-4.9,10.3,2c-0.1,6,0,10.3,0,10.3"/>
	<path class="st7" d="M357,331.8c5.9-7.1-4-9.2-3.2-15.7c2.3-4.1,1.9-8.6,0-13.5l0.7-8.2"/>
	<path class="st7" d="M366.6,331.8c2.5-4.2-2.4-9,0-13.9c0.4-3.4,1-5-1.7-11.2c0-4.2,8.1-1.8,8,3c0.5,1.4,0.4,4.8,0,8.2
		c-0.8,4.8,2.9,10.2,0.4,17c5.8,18.4,9.7,33.5,2.1,28c8,16.7,11.1,86.1,15.6,142.4c-3-15.7,12.4-18.1,41.7-10.3
		c10.5,0,50.3-38.8,66.6-13.8c29.4-15.6,59,8.2,59,41.1c-12,25.3-44.4,35.9-72.8,18.7"/>
	<path class="st7" d="M458.7,549.5c-1.2,4.9-0.4,12.5,3.7,17.7"/>
	<path class="st7" d="M439.4,591.3c-3.3-1.8-6.6-12.1-6.6-24.2"/>
	<line class="st7" x1="424" y1="611.5" x2="418.2" y2="596.2"/>
	<line class="st7" x1="388" y1="464.9" x2="465.8" y2="477.9"/>
	<path class="st7" d="M539.7,522.4c-6.1,10-30.6,12.6-37,0.6"/>
	<path class="st7" d="M492.9,486.3c-23.5-8-101.9,82.8-102.4,26.2"/>
</g>
<g id="mask">
	<polygon class="st11" points="477,510 367.6,642.2 428.6,672.1 486,545.2 530.2,529.2 510,506.7 	"/>
</g>
<g id="ärm">
	<path class="st10" d="M485.6,541c38.6,24,58.7,6,75.8-18.7c-5.6-38.1-24.5-61.9-75.8-50.9L436,483.1c21.4,19.4,26.1,40.7,10.9,64.1
		l67.3-19.3"/>
</g>
<g id="Lager_6">
	<g id="highlights">
		<path class="st12" d="M180.5,256.3c-8.2,11.9-18.2,21.6-35.6,27c-15,4.4-24.5,15.4-25.5,36.5l5.3,4.4l4,3.1
			c3.6-6.8,8.3-12,15.1-14.5L182,261L180.5,256.3z"/>
		<path class="st12" d="M153.4,313l20.2-3c18.8,16.2,33.5,45.8,46.7,79.9c12.3,14.5,26.1,13.8,34.9,6.9c5.3-4.8,5.9-10.5-2.1-18.1
			c-6.8-5.3-19.2-9.4-31.1-13.6l-7.5-3.7c-6.5-4.8-10.9-14.9-18.1-28c-8-18.7-17.8-24.7-30-38.9L153.4,313z"/>
		<path class="st12" d="M206.2,280.3c-6.8,12-5.4,25.9,4.3,41.5c0,0,6.2,6.8,5.1-1.9c-6.2-19.4-6.2-31.3-1.1-36.9
			C219,277.8,212.2,270.9,206.2,280.3z"/>
		<path class="st12" d="M224.6,179.5c1.7,22,8.3,36.6,28.4,31c3.1-1.9,2.5-4.1,0-6.5l-18.9-21.1
			C229.6,177.8,227.9,176.2,224.6,179.5z"/>
		<path class="st12" d="M264.3,256.3c4.2-15.7,15.5-31.2,17.3-41.1s-7.1-3.5-7.1-3.5c-12.5,8.7-19.3,20.2-17.4,35.9
			C258.4,254.4,262.9,259.7,264.3,256.3z"/>
		<circle class="st12" cx="161.4" cy="333.2" r="4.1"/>
		<circle class="st12" cx="208" cy="246.6" r="4.7"/>
		<path class="st12" d="M278.3,361.3c-11.3-7.4-18.2-15.6-19.3-24.8c1.2-5.1,2.8-3.4,4.5,0.3c-1,6.6,3.5,8.5,6.7,14.8
			c4.1,6.9,8.8,3.5,11.7,6.4C289.2,363.6,289.5,365.7,278.3,361.3z"/>
		<path class="st12" d="M287.1,303.3c-2.6,8-2.7,18.4,2.4,29.6c2.1,2.4,3.9,3.7,4.6-1.2c-4.3-10.6-6.2-20.5-2.3-28.5
			C290.3,300,288.8,300.5,287.1,303.3z"/>
		<circle class="st12" cx="299.8" cy="353.9" r="3.6"/>
		<path class="st12" d="M348.5,244c-2.1-6.3-7.4-7.1-17.3,0C331.2,245.8,342.4,244.2,348.5,244z"/>
		<path class="st12" d="M235.8,153.2c-7.1-12.2-11-23.5-7.5-33.1C230.5,135.8,236.8,152.7,235.8,153.2z"/>
		<path class="st12" d="M261.4,174.7c-1.2-4.1-0.9-6,2.9-3C265.7,172.5,261.7,175.5,261.4,174.7z"/>
		<path class="st12" d="M260.5,172.2"/>
		<path class="st12" d="M337,257c-3.6-6.7-6.5-6.6-8.6,0.4c-0.3,3.7,0.2,7.3,1,10.8c5.9,55.4,5.4,26.2,6.5-0.7
			C335.9,262.7,339.1,261.3,337,257z"/>
		<path class="st12" d="M343.4,292.2"/>
		<path class="st12" d="M346,299.8c-0.6-2.9-1.4-5.6-2.6-7.6c0.6-3.4,2.7-4.4,5.4-4.3L346,299.8z"/>
		<path class="st12" d="M360.6,294.4c0.7-4.6-2.6-3.2-4.4,0l-0.7,8C357.8,301,359.4,298,360.6,294.4z"/>
		<path class="st12" d="M370.1,305.6c-1.7-0.8-3.1-1.3-3.3,1.1c1.1,1.9,1.7,3.7,1.7,5.3C369.9,310.2,370.6,308.1,370.1,305.6z"/>
		<path class="st12" d="M276.7,344.6c-6.2,3-6.2,5.3,2.4,4.8c4.7-1.8,6.9-5.8,8.8-10.1C285,339.6,281.2,341.6,276.7,344.6z"/>
		<path class="st12" d="M290.8,211.7c-4.6-1.7-8.8-4.1-12.6-7.1c-2.4-2.3-0.8-4.3,2.9-3.1c5.2,1.7,7.2,5.7,11.7,6.4
			C297.3,208,296.9,214.7,290.8,211.7z"/>
		<path class="st12" d="M347.9,365c2.7,41.3,0.2,75.4-19,86.2c8.7-1.7,15-5.4,19.3-10.8C363.5,422.6,351,392.7,347.9,365z"/>
		<path class="st12" d="M367.6,532.9c-8.7-2.8-6.6-37.3-3.7-73.9L367.6,532.9z"/>
		<path class="st12" d="M365.1,540.7c-2.5,2.3-2.5,5.6,0,9.9c2.6,3.7,6,4.2,9,3.6C368.5,546.8,369.9,536.7,365.1,540.7z"/>
		<path class="st12" d="M401.8,493.9c-10.3-1.4-12.1,37.8,5.1,33.7c8.4-1.6,30.1-30.3,24.8-29.7
			C421.2,494.2,411.2,492.6,401.8,493.9z"/>
		<path class="st12" d="M472.3,482.1c5.6-2.3,9.8,1.5,18.4,0c3.2-4.4,0-6.8-9.7-7.2C472.6,478.3,465.5,485.8,472.3,482.1z"/>
		<path class="st12" d="M538.3,485c-10.7-5-21.6-7.5-32.7-1.9c-8.1,4.2-7.9,6.6,1.7,7l30.1,1.5C541.6,491.1,541.7,488.8,538.3,485z"
			/>
		<path class="st12" d="M213.6,453.6c5.5-15.8,28.2-23.2,38.6-16.4c10.8,6.9,5.8,6.9-3.5,8.2C234.1,447.4,213.6,459.1,213.6,453.6z"
			/>
		<path class="st12" d="M92.5,574.2l29.4-27.3c-5.9-13.1-12.6,7.9-29.4,14.2C85.2,564.1,88.1,578.8,92.5,574.2z"/>
		<path class="st12" d="M74.6,607c-17.2,0.5-17.7-29.7-2.3-31.9C57.8,588.2,85.1,605.8,74.6,607z"/>
		<path class="st12" d="M153.4,738.3c-8.9-6.9-7.8-12.4,3.2-16.7C157.2,735.4,154.3,737.6,153.4,738.3z"/>
		<path class="st12" d="M197.1,807.3c-4.6-33.9-3.6-73.9,5.6-75C211.3,730.8,201.4,776.7,197.1,807.3z"/>
		<path class="st12" d="M221.7,705.3c-12.5-1.2,1.6-25,21.6-36.5C234.7,684.2,229.3,706.2,221.7,705.3z"/>
		<path class="st12" d="M368.9,721c-9.4,0.2-14.3,19.3-11.8,20.7c1.9,1.1,13,22.5,17.6,18.9C382.4,761.9,382.9,724.4,368.9,721z"/>
		<path class="st12" d="M323,571.2"/>
		<path class="st12" d="M326.7,566.2c-5,3.1-7.6,7.8-6.8,15c1.5,5,7.8,5.6,7.8,3.6C329.9,582.4,328.5,574.6,326.7,566.2z"/>
		<path class="st12" d="M317.6,601.4c-4.1,5.9-6.3,10.9-3.8,13.4c1.7,1.9,2.9,3.1,6,2.9C323,619.2,320.2,609.1,317.6,601.4z"/>
		<path class="st12" d="M314.3,627.8c-4-3.2-5.6,3.7-6.3,14.4c-2.9,7.8,1,9.3,9,7C325.1,646.8,322.2,637.1,314.3,627.8z"/>
		
			<ellipse transform="matrix(0.9948 -0.1014 0.1014 0.9948 -56.5015 41.0274)" class="st12" cx="375.3" cy="576.3" rx="7.6" ry="5.2"/>
		<path class="st12" d="M361.4,606.7c6.5-5.6,11.7-2.9,16.9,0c3.6,4,4.5,6.4-1.3,4.9L361.4,606.7z"/>
		<path class="st12" d="M359.9,635.1c5.9-3.1,10.4-1.1,14.2,3.5c5.9,6.5,6.5,8.9-2.9,3.6C365.8,639.6,362.6,637.3,359.9,635.1z"/>
		<path class="st12" d="M304.3,578.3c-4.1,10.3-9.8,20.5-10.2,31.3c-3.6,25.4,0,18.1,4.1,8.2C301.6,611.2,302.7,593.4,304.3,578.3z"
			/>
		<path class="st12" d="M248.4,504.6l3.9,22c3.1,3,5.2,2.4,6.6-0.8l-2.4-14.5C256.8,498.8,248.1,498.5,248.4,504.6z"/>
		<path class="st12" d="M263.3,542.2l6.9-12.9c2.2-4.8,6.8-2.8,3.3,3.7l-5.9,11.8C266.1,547.8,259,548.5,263.3,542.2z"/>
		<path class="st12" d="M273.5,560.8l6.3-10.7l-2.8,12.7C276,567.3,270.2,565,273.5,560.8z"/>
		<path class="st12" d="M459.7,535.6c-7.1,2.6-3.9,6.8-0.5,6.3l18.9-6.3c5.8-1.5,3.3-5.9,0-5.8L459.7,535.6z"/>
		<path class="st12" d="M446.9,559.3l-6.6-6.3c-5.5-2.5,3-9.1,6.6-5.8c5.3,1.7,7.6,4.6,9.5,7.6C454.2,560.2,451.3,563.3,446.9,559.3
			z"/>
		<path class="st12" d="M429.4,561.1l2.6,17.2c1.8,5.6-8.7,5.3-6.9,1L429.4,561.1z"/>
		<path class="st12" d="M279.8,459.1c2,1,14.3,0,14.3,0c7.6-0.9,16.6,1.3,18.1,8.4C298.5,467.4,285.9,466.1,279.8,459.1z"/>
	</g>
	<g id="lowlights">
		<path class="st13" d="M197.5,279.3c-3.5-0.8-7-5.9-10.5-15.5c-5.7,6.9-6.5,18.7-4.6,33.1c1.9,9.8,15.1,14.1,18.8,24.9
			c7,27.1,15.9,36.8,25.6,39.5c12.1,0.9,21,5.3,27.3,12.6c-18.4-32.8-28.8-63.2-16-86.8c-21.3,29.5-14.9,51.2,0,70.4
			c-1.8,3.2-5.7,1.5-9.6,0C217.5,357.5,186.3,302.4,197.5,279.3z"/>
		<path class="st13" d="M252.1,356.5c0.6-3.3,4.1-3.5,10.5-0.4c-14.4-15.5-17.1-36.1-8.4-61.7C241.6,316.6,242.5,337.1,252.1,356.5z
			"/>
		<path class="st13" d="M289.7,270.9c2.9,3.7,4.7,13.5,5.8,27.5c-4.8-0.3-7.7-7.4-7.5-24.9c-7.9,2.4-15.2,11-23.3,23.4
			C253.7,296.9,269.3,270.9,289.7,270.9z"/>
		<path class="st13" d="M326.6,246.6c-14.6,7.4-24.1,6.1-23.1-13.1c0-7.9-12.5,0.4-10.4,11.3c4.1,13.8,20.7,26.6,29.1,12.6
			C328.4,246.4,329.7,243,326.6,246.6z"/>
		<path class="st13" d="M315.7,344.4l34,5.8c8.4,0.7,1.1,9.2-2.9,3.6c-11.8-2.3-25.3-0.4-31.2-5.5
			C312.2,346.5,313.4,343.1,315.7,344.4z"/>
		<path class="st13" d="M344,322.8c0,0.7,2.9,12.1,2.9,12.1l-9.1-12.1C333,318.8,341.6,316.1,344,322.8z"/>
		<path class="st13" d="M353.2,333.3l3.1-5.8c1-3.1-5.4-7.5-3.1-3.1V333.3z"/>
		<path class="st13" d="M364.5,318.7c1.1-4.1,0.3-7.3-1.6-10.2L364.5,318.7z"/>
		<path class="st13" d="M350.7,316.1c3.8-3.8,3.9-7.6,0.3-11.5L350.7,316.1z"/>
		<path class="st13" d="M370.2,318.1c0.1,0.6,0.3,1.2,0.4,1.8c2.4,10.4,2.6,16.2-0.4,15.3V318.1z"/>
		<circle class="st13" cx="362.9" cy="327.9" r="3.2"/>
		<path class="st13" d="M372.5,358.9c4.7,4.3,6,3,4.5-3.2l-2.8-12.8C370,346.1,368.6,350.9,372.5,358.9z"/>
		<path class="st13" d="M373.9,302.4c-16.7-73.2-32.9-92.3-48.7-76.8c-5.8,4.8-11.8-4.1-2-6c11.7-0.5,18.1-6.9,20.8-17.4
			c15.7,20.2,24.3,56.1,29.9,98.8"/>
		<path class="st13" d="M382.4,371c6.3,44.9,16.4,79.6,33.8,93.9l-20.9-1.7c-5.8-2-7.1-3.5,0-4.3L382.4,371z"/>
		<path class="st13" d="M395.4,471.5l44,7.5c6.1,2.6,7.7,4.9-0.8,6.8l-43.2-6.8C391.5,476.4,391,473.9,395.4,471.5z"/>
		<path class="st13" d="M539.7,516.1c-3.5,16.2-39.1,17.8-34.4-2.4C507.7,508.2,541.2,508.6,539.7,516.1z"/>
		<path class="st13" d="M486,540.6c4.1-8.9,9.4-14.8,16.1-17.1c3.1,5.9,9.2,9.7,23.4,7.7C508,533.3,489.3,535,486,540.6z"/>
		<path class="st13" d="M510,546.7c5.9,1.7,13.2,0.4,28.6-5.4c5.2-1.3,5.2-4.2,2.8-7.7C539.7,529.9,521.7,541.4,510,546.7z"/>
		<path class="st13" d="M462.4,552.2c1.6,22,7.7,13.1,14.5,0C478.7,546.2,462.4,547.1,462.4,552.2z"/>
		<path class="st13" d="M436,576.1c4.3,22.8,11.7,12.8,19.3,0.2C456.4,568.9,436,570.1,436,576.1z"/>
		<path class="st13" d="M422.8,600c4.1,17.7,8,17.1,11.7,0C434.5,596.2,421.1,596.2,422.8,600z"/>
		<path class="st13" d="M392.1,646.2c7.3-34,10.4-65.7,0-89.5c18.2-2.9,29-4.6,25,8.7L392.1,646.2z"/>
		<path class="st13" d="M443.7,810.2c24.8-89.1,7.8-105.3-28.9-183.2c-1.8-3.6-4.2,0.7-7.4,15.2
			C400.4,675.2,427.2,749.5,443.7,810.2z"/>
		<path class="st13" d="M363.3,664.9c-12.3,0-21.7-3.6-27.8-11c-10.1,5.3-19.6,7.4-28.4,4.6c8.6,4.7,28.4,9.2,28.1,4.3
			C342.2,670.4,353,667,363.3,664.9z"/>
		<path class="st13" d="M354.3,619.2c-7.5,1.9-10-2-7.5-11.5C350.8,601.8,363.3,616.6,354.3,619.2z"/>
		<path class="st13" d="M331.1,615.3c7.1,1.9,9.5-0.8,9.4-5.7C336.7,601.4,322.8,615.9,331.1,615.3z"/>
		<path class="st13" d="M346.9,573.6c2.1,4-1.4,6.3-10.1,6.8C331.4,579.3,346.9,561.1,346.9,573.6z"/>
		<path class="st13" d="M359.9,583.4c-7.4-0.2-9.1-4.2-5.6-11.6C358.1,567.2,362.6,581.3,359.9,583.4z"/>
		<path class="st13" d="M352.6,652.4c-19.1-2.3-13.5-12-7.7-24.3c-1.6,9.1-2.5,15.8,0,12.1c12-3,14.3,0.4,15,4.8
			C360.6,649.9,357.7,652,352.6,652.4z"/>
		<path class="st13" d="M334.5,638.6c-5.4-4.9-8-2.4-8,7.7l7-1.2C335.6,642.6,336.5,640.4,334.5,638.6z"/>
		<path class="st13" d="M283.6,494.8c11,31.8,52,35,66.1,10.2C354.3,494.5,304.3,519.3,283.6,494.8z"/>
		<path class="st13" d="M253.7,469.5c-11,13.4-24.5,23.8-46.4,23.9c28.6,10.6-85.4,65.4-84.3,77.5c-4.1,27.4,8.9,20.4,11.7,6.3
			c2.8-13.2,12.9-23.2,29.9-30.1c61.3-39.8,55.1-45.1,50-51c16.4-2,32.3-6,45.2-21.1C265,470.3,256.6,464.9,253.7,469.5z"/>
		<path class="st13" d="M164.1,690.7c-17.8-54.3-34.5-84.7-50-90.2c-4.7-1.4-8.3-1.5-6.4,4.6l50.3,85.6
			C166.3,705.4,167.9,699.1,164.1,690.7z"/>
		<path class="st13" d="M231.3,835.9c3.1-54.8,20.2-90.3,51.6-106c10-4.1-5.1-16-14-10.7c-31.4,22.9-46.5,61.8-46.7,115.1
			C222.1,844.4,230.1,845.5,231.3,835.9z"/>
		<path class="st13" d="M375.3,542.7c2.3-1.4,5.7,1.1,9.3,4.5c-3.6,1.2-7,1.7-9.3-0.9C373.3,545.5,374.2,544.1,375.3,542.7z"/>
		<path class="st13" d="M478.9,520.4c-33.2,6.3-84.9,43.7-88.9,23.2c-1.2-6.7,2.3-3.8,9.4-5.6L478.9,520.4z"/>
		<path class="st13" d="M253.7,531.9c2.1,5.4,4.1,5.4,6.2,0C257.8,530.6,255.8,530.6,253.7,531.9z"/>
		<path class="st13" d="M261.5,552.2c0,9,6.8,9,9.9,0C268.1,549.5,264.8,549.5,261.5,552.2z"/>
		<path class="st13" d="M271.4,569.2c-0.5,9.4,4.4,10,5.9,0C275.3,566.5,273.3,566.5,271.4,569.2z"/>
		<path class="st13" d="M286.3,609.6l-2.7,24c0,8.6-12.3,6.7-9.3,0L286.3,609.6z"/>
		<path class="st13" d="M354.3,527.9c0.2,7.1-2.9,13.7-7.5,20.1c2.5-3.1,4.5-7.6,8.8-5.7l3.3,5.8
			C353.8,540.2,352.8,533.7,354.3,527.9z"/>
		<path class="st13" d="M273,184.6c8.2,9.8,15.6,17.2,18.2,10.1L273,184.6z"/>
		<path class="st13" d="M256.8,166.4c-24-17-33.2-57.7-1.7-44.4C242.4,135,246.2,150.3,256.8,166.4z"/>
		<path class="st13" d="M296.2,270.9c-1.3,4.1,5.9,33.1,10.3,53.8c-3.8-22.5-6.2-43.2-1.7-53.8C301.7,267.7,298.7,267,296.2,270.9z"
			/>
		<path class="st13" d="M313.5,357.5c10.8,11.4,18.2,8.6,24.2,0C329.6,360.7,321.6,360.7,313.5,357.5z"/>
		<path class="st13" d="M233.1,215.2c-8.5,1.4-15-26.3-17.2-45c-1.4-6.5-4.4-10.2-9-11.1C212.7,166.4,212.7,217.3,233.1,215.2z"/>
		<path class="st13" d="M222.1,728.3c-8.8-7.7-16.4-16.2-20.4-26.6c-3.8-3-7.6-3-11.4,0C186.9,708,208.1,718.8,222.1,728.3z"/>
		<path class="st13" d="M184.9,723.3l5.4,5c1.6,1.5,1.7,2.9-0.4,4.2C184.5,731.9,183.2,728.6,184.9,723.3z"/>
		<path class="st13" d="M179.4,735.8l7.5,7.5c0.7,3.1-0.4,5.2-2.1,6.9C179.3,745.5,177.7,740.7,179.4,735.8z"/>
		<path class="st13" d="M226.9,728.3c3.7,0.5,4.3,3,2,7.5C225,733.3,224.4,730.8,226.9,728.3z"/>
		<path class="st13" d="M175.8,753.8c6.5-0.4,9.5,2.3,9.1,8.1C180.7,763.4,177.7,760.8,175.8,753.8z"/>
		<path class="st13" d="M302.5,557.7c7.4-13,18.1-20.2,33-19.7C316.8,533.2,306.6,541,302.5,557.7z"/>
		<path class="st14" d="M122,54.4"/>
	</g>
</g>
<g id="Lager_7">
</g>
</svg>
