<?xml version="1.0" encoding="utf-8"?>
<!-- Generator: Adobe Illustrator 23.0.1, SVG Export Plug-In . SVG Version: 6.00 Build 0)  -->
<svg version="1.1" id="Lager_1" xmlns="http://www.w3.org/2000/svg" xmlns:xlink="http://www.w3.org/1999/xlink" x="0px" y="0px"
	 viewBox="0 0 595.3 841.9" style="enable-background:new 0 0 595.3 841.9;" xml:space="preserve">
<style type="text/css">
	.st0{fill:none;stroke:#1D1D1B;stroke-width:1.9135;stroke-miterlimit:10;}
</style>
<g id="B">
	<path class="st0" d="M121.3,119.3c10.5-10.2,5.3-34.6-15.5-27c-30.2,13.4-45.4,37.1-82.6,22.4L34.8,73
		c16.1,13.8,41.4-14.5,72.8-25.8c50.1-16.8,68.3,32.5,44.2,60c109.9-5.5,87.5,109-4.9,101.3l-14.7-19.9h9.9l-55-81.3l20.6-12.1
		L121.3,119.3z"/>
	<path class="st0" d="M129.9,131.5c32.9-5.1,40.1,22.7,27.9,42.9L129.9,131.5z"/>
</g>
<g id="E">
	<path class="st0" d="M255.4,36.6c-33.6,25.3-71.8,7.1-92,28.2l17.4,43.9l12.8-5.5L245,208.8c25-26.9,54.3-6.1,84.6-34.5l-25-43.5
		c-14.6,19.5-32.1,7.3-58,21.8l-6.7-16c3.8-10.3,27.9,1,43-18.2l-13.2-23.7c-14.6,14.6-35.9,6.6-41.6,15.6l-6.6-15.6
		c12.3-10.6,44.9-6.1,57.2-20.2L255.4,36.6z"/>
</g>
<g id="R">
	<path class="st0" d="M323.9,108.3c13.7-4.6,17.5-45-16-36.2c-24.5,8.3-38.2,36.6-69.4,18.9l5.7-37.9c32,17.2,32.6-9.5,66.5-16.7
		c51.5-13.6,72.2,24.9,52.5,71.8l88.8,57.1c-5.9,13.7-14.2,24.5-24.5,32.9l-85.2-57.6l32.4,57.6l-25.3,10.6L282.4,92.7l26-14.1
		L323.9,108.3"/>
</g>
<g id="G">
	<line class="st0" x1="478.5" y1="101.5" x2="478" y2="101.5"/>
	<path class="st0" d="M514.6,99.8c-23.5,13.9-31.1,1.7-49.8,12.9l1.9,10c6.1-3.6,12.3-5.2,18.7-3.8"/>
	<path class="st0" d="M485.4,118.9c3.6,16.6-0.8,32.9-12.5,41c-15.9,11-39.2,2.5-52-18.9c-12.8-21.3-10.3-47.5,5.6-58.4
		c23.3-13.7,25.5,11,52,18.9"/>
	<path class="st0" d="M478.5,101.5l27.6-19c-30.5-1.5-53.3-65.7-100.6-34.8c-31,21.7-36.7,71.7-12.3,112.3s69.4,56.1,100.6,34.8
		c26.9-18.5,34.7-58.4,20.7-95.1"/>
</g>
<path id="L" class="st0" d="M294.3,200.5l50.9,107.1c8.9-29.6,29.1-2.7,46.7-28.6l20.8,35.4c-21.7,28.6-63.6,3.7-67.5,45.1
	l-17.8-8.4l-49.8-99.7l-8.2,4.4l-17.6-35.7C262.1,219.6,275.4,204.5,294.3,200.5z"/>
<g id="Ö">
	<ellipse transform="matrix(0.92 -0.392 0.392 0.92 -75.6251 186.7216)" class="st0" cx="419.4" cy="278.6" rx="49.1" ry="72.9"/>
	
		<ellipse transform="matrix(0.9131 -0.4077 0.4077 0.9131 -77.8553 195.7395)" class="st0" cx="420.4" cy="280.6" rx="22.5" ry="38.4"/>
	<ellipse class="st0" cx="362.9" cy="204.5" rx="13.8" ry="14.8"/>
	<ellipse class="st0" cx="390.5" cy="192.6" rx="13.8" ry="14.8"/>
</g>
<g id="F">
	<path class="st0" d="M467.4,244.2h-17.7l-8.8-35.4c65.7-16.2,69,17.7,116.7-4.4l14.6,36.7c-34,24.3-39.5,2-72.8,3l14.5,44.5
		l21,64.6c-12.8,3-24.7,3.8-35,0L467.4,244.2z"/>
	<path class="st0" d="M513.9,288.7c11,5.2,25.2,2.9,40.3-2.1l-10.9-30.3c-14.4,4.5-28.1,7.2-39,3.1"/>
</g>
</svg>
