<?xml version="1.0" encoding="utf-8"?>
<!-- Generator: Adobe Illustrator 23.0.1, SVG Export Plug-In . SVG Version: 6.00 Build 0)  -->
<svg version="1.1" id="Lager_1" xmlns="http://www.w3.org/2000/svg" xmlns:xlink="http://www.w3.org/1999/xlink" x="0px" y="0px"
	 viewBox="0 0 754 524" style="enable-background:new 0 0 754 524;" xml:space="preserve">
<style type="text/css">
	.st0{fill:#EAB931;stroke:#000000;stroke-miterlimit:10;}
	.st1{fill:none;stroke:#000000;stroke-miterlimit:10;}
	.st2{opacity:0.2;enable-background:new    ;}
	.st3{opacity:0.5;fill:#FFFFFF;enable-background:new    ;}
	.st4{fill:#F29159;stroke:#000000;stroke-width:3;stroke-miterlimit:10;}
	.st5{fill:#FFF7D5;}
	.st6{fill:#E41F1C;stroke:#000000;stroke-miterlimit:10;}
	.st7{fill:#E41E1C;stroke:#000000;stroke-width:2;stroke-miterlimit:10;}
	.st8{fill:none;stroke:#000000;stroke-width:2;stroke-miterlimit:10;}
	.st9{fill:#BF1818;stroke:#000000;stroke-width:2;stroke-miterlimit:10;}
	.st10{fill:#FFFFFF;stroke:#000000;stroke-width:2;stroke-miterlimit:10;}
	.st11{stroke:#000000;stroke-width:2;stroke-miterlimit:10;}
	.st12{fill:#39BACA;stroke:#000000;stroke-width:2;stroke-miterlimit:10;}
	.st13{fill:#AA1A17;stroke:#000000;stroke-width:2;stroke-miterlimit:10;}
	.st14{fill:#F6F6F6;stroke:#000000;stroke-width:2;stroke-miterlimit:10;}
	.st15{fill:#F29159;stroke:#000000;stroke-miterlimit:10;}
	.st16{fill:#FFF7D5;stroke:#000000;stroke-miterlimit:10;}
	.st17{fill:#1E3663;stroke:#000000;stroke-miterlimit:10;}
	.st18{stroke:#000000;stroke-miterlimit:10;}
	.st19{opacity:0.2;fill:#FFFFFF;enable-background:new    ;}
</style>
<g id="Hår">
	<path class="st0" d="M408,78.9l14.2,218.9c108.3-68.3,215.2-87.9,320.7-57.7c-17.4-0.6-33.5,0.5-44.9,7.1
		c10.1-1.3,23.6,3.6,37.8,9.7c-15.2-1.5-29.4-2-39.3,2c10.2,0.7,22.5,2.6,35.7,5.1c-16,1.5-31.3,3.1-41.4,6.6
		c9.8-1.1,25.3,1.2,41.4,3.8c-19.1,0.5-36.9,1.6-49.5,5.4c10.7-0.5,27.2,2.8,44.4,6.6c-20.5,0.1-40.2,1-58.7,3.1
		c15.7-0.2,34.3,3.9,54.1,9.7c-23.3-1.3-46.2-0.6-68.4,2.6c15.9-0.1,34.7,3.1,54.6,7.7c-23.1,0.2-46.3,2.7-69.4,7.7
		c14.2-1,32.9,1.6,52.6,5.1c-22.4,0.3-43.5,1.3-61.8,4.1c13.8,0.6,31.8,5,50.6,10.2c-20.6-1-40.3-1.3-56.2,1.5
		c12.4,1.7,26.1,6,40.3,11.2c-17.6-1.5-35.3-0.6-53.1,4.6c11.3,0,25.1,4.7,39.3,10.2c-17.4-1.8-33.9-2.6-46.5,0.5
		c10.2,0.7,25.6,4.9,41.4,9.2c-68.9-7.7-127.9,21.7-188.4,88.9c-50.6,50-291.6,37.3-364.6,4.1C-41.4,399.4-25.1,328.9,154.7,70
		c13.6-18,31.3-21.8,53.1-11.2c1.9-14.6,7.5-26.6,21.4-32.4C268.8,17.7,339.4,49.7,408,78.9z"/>
	<path class="st1" d="M165.2,96.4C9.4,294.8-10.9,408.6,104.4,437.8"/>
</g>
<g id="lowlights-hair">
	<path class="st2" d="M152.6,120.7c-21.7,22.4-51.4,61.4-78.3,119c27.6,2.1,71.7,30.7,117.1,61.3L152.6,120.7z"/>
	<path class="st2" d="M101.2,439.1c-51.3-15.3-93.6-40.2-63.3-143.3C2.3,387.9,34.4,427.1,101.2,439.1z"/>
	<path class="st2" d="M137.6,126c19.7-31.2,42.5-52,67.7-64.3C176.3,63.9,154.3,86.9,137.6,126z"/>
	<path class="st2" d="M212.5,58.2c22.5-10.9,48.6-16.8,78.3-17.7C260.7,37.2,234.3,42.3,212.5,58.2z"/>
	<path class="st2" d="M399.3,477.6c40.9,9.4,65.5-36,131-85.8C468.2,425.5,429.9,466.6,399.3,477.6z"/>
</g>
<g id="Highlights-hair">
	<path class="st3" d="M175.4,435.3C40.9,442.2,2,382.3,74.3,244.8c-2.6,12.2-2.8,20.6,0,24.5c2.3-8.5,6.2-14.4,11.6-18.4
		c-3.3,6.4-3.7,12.6-0.7,18.7c-0.6-4.7,3.7-10,12.8-16c-6,7.3-6.5,14.6-3.3,21.8c0.9-6.8,4-12.6,15-14.8c-8,5.4-8.4,11.1-2.8,17.2
		c-1.8-6.2,1.4-11.1,14.3-13.3c-8.9,4.1-7.3,12.3-2.7,21.8c-1.2-8,3.6-13.8,15.7-17c-8,8.4-7.1,19.6-3.7,31.7
		c1.1-11.8,3.5-22.3,14-25.9c-8.3,4.9-7.7,16.2-5.1,28.9c1-10.5,4.9-19.2,16.3-22.8c-10.1,4.9-7.9,15.3-2,27.2
		c-5-14.4-0.4-21.4,13.6-21.1c-16.5,21.5-7.9,52.9,19.1,60.9c-3.4,3.4-10.3,5.1-18.4,6.1c9.8,6.9,20.9,8.8,32.7,7.8
		c-11,7-21.6,10-31.7,7.5c13.1,9.4,34.4,11.1,56.5,12.3c-22.6,4.5-43.4,7.5-58.6,6.1c16.2,11.1,45.8,12.4,76.3,12.9
		c-31.8,5.5-61.6,9.2-81.7,4.1c18.8,8.8,45.6,12,74.6,13.6c-29.2,3.1-56.3,4.3-76.9-0.3c20.8,8.8,50.3,12.1,82,14L175.4,435.3z"/>
	<path class="st3" d="M427.3,433c38-54.7,94.1-72.8,158.6-81c-11.6-1.6-23.6-2-36.8,0l43.6-9.2c-11.9-2.9-24.7-2.6-38.1,0
		c15.6-5.8,33.5-8.6,52.4-9.9c-15-1.8-29.4-2.8-40.5,0c12.9-8.1,30.2-10.1,48.7-10.6c-15.2-2-29.8-3.4-38.5,0
		c16.3-5.1,32.1-8,47.3-8.2c-13.9-3.1-26.8-4.6-37.8-2.7c13.8-5.6,33.4-7.2,54.1-7.8c-15.2-2.8-30.6-5.8-38.5-3.4
		c13.6-5.5,34.3-6.4,55.8-6.8l-36.4-1.4c9.2-6.9,34-6.3,54.5-7.8c-19-1.7-39.6-4.1-47.7-1c14.2-6.4,34.1-8,55.5-8.5l-55.1,4.4
		c14-6.1,31.5-7.7,50-8.2l-50,2c14.9-6,33.5-7.8,53.1-8.5c0,0-37.4-4.4-53.1-1c18.8-4,36.3-6.3,51.1-4.8
		c-15.1-3.6-29.1-5.9-40.9-5.8c12.1-4,27.1-6.3,42.9-8.2c-15.1-2.9-29.3-4.3-40.9-1.4c12.7-6.8,26.5-9.1,40.9-8.5
		c-76.9-6.3-162.4,17.5-256,68.8c14.4-7.4,26.2-10.5,34-6.8c-10.9,2.6-38.8,21-66.4,39.1c23.8-10.7,48.3-22.4,58.2-16.3
		c-11.3,0-48.1,27.8-81.7,52.1c31.6-18.2,64.1-38.3,78.6-23.5c-16.3,0-51.9,32.2-87.8,65c27.7-18.6,59.4-46.5,70.5-27.2
		c-10.4-6-34.4,22.7-57.5,49.3c24-20.5,49.9-46.1,60.9-32.6c-9.6-2.5-31.7,25.7-52.4,50.4C399.5,440.1,418.9,421.7,427.3,433z"/>
	<path class="st3" d="M517.1,268.5c33.6-11.2,64.1-18.6,87.6-17.3c-20.2,6.3-39.8,12.9-52.4,23.5c11.5-4.8,31.5-1.5,51.1,1.4
		c-24.7,4.3-48.4,9.1-64,18c11.2-1,24.2,2.6,37.4,7.1c-17.5,2.3-34.1,5.2-46.6,10.6c11.1-2.8,26.9,1.3,42.8,5.8
		c-26.4-1.4-70.9,9.1-117.4,20.8L517.1,268.5z"/>
	<path class="st3" d="M129.5,425C69,416.4,25.3,390.6,67.9,276.2c-1.7,16.2,0.1,29.9,6.5,40.4c-1.7-12.4,3.4-22.7,15.9-30.7
		c-5.8,9.9-1.7,22,9.3,35.5c-1.9-9.7,3.3-18.7,18.7-26.9c-3.9,11.1,2.3,20,7.7,25.5c8.2,29.2,18.3,54.4,39.3,55.7L126,379l39.3,17.2
		c-13.1,2.6-25.6,2.5-37.1-1.4c7.1,7.5,16.2,12.1,27.8,12.9c-10.8,3.1-23.4,1.1-37-3.4c11.4,6.4,22.7,11.6,33,11.2
		c-10.1,5.4-20.3,2.4-30.6-5.1c7.3,7.5,15.1,13.2,24.2,14.7L129.5,425z"/>
</g>
<g id="face">
	<path class="st4" d="M405,78.1c-145-97-353.7,25.1-247,208c-3,18.6-0.1,35.8,11,50.8C25.3,301.7,54.9,510.3,193,364
		c5.9,4.7,12.4,7,19,8.4c6.2,32.8,9.6,69.4,11.1,108.8c54.1,24.5,118.8,19.1,188.4,0c-9.6-21.8-11.6-42.1-5.6-60.8
		c124.2-46.2,139.7-127.7,89.9-230.6c1.4-6.2,1.2-13.7,0.5-21.7c125.6-42.9,33.2-124.2-15.8-38.8C462,102.2,436.1,86.3,405,78.1z"/>
</g>
<g id="Linjer_face">
	<path class="st5" d="M207.1,299l90.6-123.4H331l9.9-27.9l116.7-15.2l8.6,26.8c5,15.9,6.3,32.5,4.7,49.5
		c-9.2,29.6-19.9,56.7-36.4,74.1c-28,28.4-61.5,49.7-105.2,57.9c-33.3-0.7-64.4-3.6-87.1-14.3C230.3,320.7,218.6,310.8,207.1,299z"
		/>
	<path class="st6" d="M253,236.6l46.3-63.3c0,5,29.3,5,29.3,0c8.1-6,12-14.6,12.3-25.5l60.3-4.9c-14.7,5.8-23.1,13.1-16.7,24.3
		c-16.3-9.8-34.1-7.6-33.7,22.6c-19.8-13.7-40.5-2.3-32,24.4c-21.1-17.8-42.2-9.1-36.7,22.5C273.8,230.9,263.8,232.3,253,236.6z"/>
	<path class="st7" d="M205.6,300.9c147.9,81.7,171.7-11.8,212.5-16.4c7.7-35.2,67.7-49.3,40.9-148.3
		C537.6,275.9,318.7,425,205.6,300.9z"/>
	<path class="st7" d="M459,132.5c-54.1,7.4-133.5,0.3-129.4,20c0.3,14.2-6.8,19.6-19.4,18.2c-8.7-2.6-17.4-0.2-25.9,7.7
		c-34.4,39.1-52.6,86.3-79.6,123.7c37.4-50.1,80.4-94.8,97.1-121c20.6,13.8,44.3-7.3,42.8-25.2C360.7,157.1,413.8,139.9,459,132.5z"
		/>
	<path class="st8" d="M204.7,312.2c0.8-6.4,0-12.6-1.7-20.1"/>
	<path class="st8" d="M466.2,132.7c-5.5,0.4-12.2-0.4-14.3-2.8"/>
	<path class="st8" d="M282,144c10.1,5.6,17.7,14.5,22.8,26.7"/>
	<path class="st8" d="M330.9,153.1c-8.1-3.3-16.3-12.2-24.4-26.5"/>
	<path class="st8" d="M239.1,124.9c28.8,20.1,44.2,23,47.3,10"/>
	<path class="st8" d="M286.4,87.5c9.3,19.3,18.2,38.3,9.5,39.1c15.1-3.2,4.3-33.4,3.5-36.1"/>
	<path class="st8" d="M318.7,109.6c-4.4-11.8-10.1-14.6-16.9-11"/>
	<path class="st8" d="M321.1,117.4c12.4,1.4,13.6-1.7,16.1-14.1c3.4-24.4-23.3-15.9-55.3-33.9C255,29.6,192,65,225,116
		c-5.1,10.6-42.6,41.3,4.1,48c17,0.6,23.1-3.2,28.9-14.6"/>
	<path class="st8" d="M256.4,144c-10.2,5.7-17.4-1.2-17.4-17.4"/>
	<path class="st9" d="M173.8,198.5c16.4,22,69.9,8.1,42.9-37.5"/>
	<path class="st10" d="M210.2,157.4c25.9,16.7-0.6,64.7-36.4,41.2L210.2,157.4z"/>
	<path class="st11" d="M199,208.8l-19,10.3c20.8,0.5,34-4.8,37-17.8"/>
	<path class="st12" d="M206.1,147.7c-43.8-31-73.9,18.6-45.2,48.6H175l35.1-39C206.9,154.5,205.8,151.2,206.1,147.7z"/>
	<polygon class="st11" points="201.3,167.4 165,207.3 145.5,207.3 	"/>
	<path class="st12" d="M331.1,87.5c-2.8-32.3,34.9-35.2,44.8-10.2L331.1,87.5z"/>
	<path class="st13" d="M335.6,87.5c18.2,23.2,29.5,18.3,35.4-8.9"/>
	<path class="st14" d="M334.4,86.7c8.5,16.6,38.1,10.4,35.6-8.1L334.4,86.7z"/>
	<polygon class="st11" points="358.1,81.3 375.9,77.3 384.6,63.8 	"/>
	<path class="st11" d="M355.7,102.3c9.8,2.4,16-1.5,21.1-7.5L355.7,102.3z"/>
	<line class="st8" x1="236.9" y1="352.5" x2="310.3" y2="366.8"/>
	<path class="st8" d="M348.2,369.9l89.9,9.2c28.7-11.6,41.7-31.2,50-53.1l-4.1-36.8"/>
	<line class="st8" x1="483.5" y1="264.7" x2="488.1" y2="181.1"/>
	<path class="st8" d="M109.7,373.4c0-28.6,38.4-29.8,70.2-20.9c-11,3.4-19.6,7.9-18.1,16.8"/>
	<path class="st8" d="M529.5,103.4c-20.3,3.1-34,16.3-41.4,39.5c7.7-7.3,14.6-10.5,20.7-10.2"/>
	<path class="st15" d="M405.9,420.4c-33.5,7.9-68.6,5.4-104.7-6.6"/>
	<path class="st15" d="M480.4,129.4"/>
</g>
<g id="Teeth_n_Eyes">
	<path class="st16" d="M212,299.4c55.7-13.2,104.2-33.9,141.3-66.9"/>
	<path class="st16" d="M455.6,132.8c-10,14.2-20.1,28.4-37.5,42.5"/>
	<path class="st16" d="M353.3,194.9l17.4,22.4c-0.3,2.3-2,3.7-4.4,4.6"/>
	<path class="st16" d="M373.5,214.6c0.1,0.9-0.9,1.8-2.9,2.7"/>
	<path class="st17" d="M180,190.8c17.2,10.4,30.2-5.9,18.5-20.3L180,190.8z"/>
	<path class="st17" d="M337.5,85.9c4.5,8.9,20.6,5.1,18.2-4L337.5,85.9z"/>
	<path class="st18" d="M183.7,187.4c8.8,7.5,20.3-6.5,11.7-13.2L183.7,187.4z"/>
	<path class="st18" d="M340.6,85.3c1.2,5.2,11.6,5.2,10.6-2.4L340.6,85.3z"/>
</g>
<g id="highlights">
	<path class="st3" d="M201.3,225.4c-14.3,24.7-30.3,43.9-36.1,62.3c-3.9,19,1.1,34.8,11.9,48.7C174,304.8,185.5,266.1,201.3,225.4z"
		/>
	<path class="st3" d="M165.2,339.4c-28.2-1.3-57.7-8.3-78.6,21.1C108.7,345.1,137.1,342.5,165.2,339.4z"/>
	<path class="st3" d="M177.5,251.2c-10.4,8.1-16.4,18-18,29.6c-31.6-51.7-29.8-101.7-14-151C142.6,188.1,130.5,258.5,177.5,251.2z"
		/>
	<path class="st3" d="M226.8,108.2c-11-23-6-39.9,8.9-45.9C247.8,74,243.5,94.8,226.8,108.2z"/>
	<path class="st3" d="M217,156.2c-9.3-3.3-9-9.5-1.4-18.3C213.8,142.9,213.8,148.8,217,156.2z"/>
	<path class="st3" d="M282.6,74c8.9,7.6,21.1,10.7,34.2,12.4L282.6,74z"/>
	<path class="st3" d="M271.8,50.4c28.1-2,54.3-1,76.4,6.1L271.8,50.4z"/>
	<path class="st3" d="M245.2,241.8c11.4-23.2,25.4-43.1,41.2-60.7L245.2,241.8z"/>
	<path class="st3" d="M308,172.6c11.9,1.9,19.8-1.3,22.9-10.6C329,171.2,323.4,176.8,308,172.6z"/>
	<path class="st3" d="M290.2,200.5l12.3-16.1c5.1,2.5,10.1,4.2,15.1,2.9C307.8,189.1,298.6,192.9,290.2,200.5z"/>
	<path class="st3" d="M345,168.5c1.8-3.1,2.2-6.5,1.8-10.2c3,1,10.1-0.6,17-2.2C355.4,159,348.5,162.7,345,168.5z"/>
	<path class="st3" d="M376.3,313.9c18.6-16.1,34.7-27.9,41.9-24.7L376.3,313.9z"/>
	<path class="st3" d="M421.5,285.8c1.2-10.2,7.7-20.8,18.5-31.8L421.5,285.8z"/>
	<path class="st3" d="M161.6,189.7c-13.6-19.8-8.9-34,5.8-45C160.8,159.7,158.1,174.7,161.6,189.7z"/>
	<path class="st3" d="M334.4,82.9c-0.8-7.7,2.7-13.8,10.6-18.1C340.9,69.9,337.4,76,334.4,82.9z"/>
	<path class="st3" d="M332.9,150.8c-0.1-3.2,2-4.8,6.4-4.8L332.9,150.8z"/>
	<path class="st3" d="M286.4,141.8c2.8-3.2,4.1-7.3,3.8-12.4c3.5,0.9,7.8-0.5,12.5-2.7C295.7,131.2,290.3,136.3,286.4,141.8z"/>
	<path class="st3" d="M434.7,94.8c-10.7-6.5-20.9-10.9-30.4-11.9c-11.6,2.1-22.9,10.8-34.2,20.1C393.9,91.1,415.1,89.9,434.7,94.8z"
		/>
	<path class="st3" d="M483.5,131.3c13.3-22,28.8-36.1,48.8-34.9C515.1,101.9,498.8,113.2,483.5,131.3z"/>
	<path class="st3" d="M226.1,474.8c0-35-2.6-68.2-8.7-99.1c24.3,21.8,53.6,34.8,86.6,41.4C263.6,414.1,236.1,431,226.1,474.8z"/>
	<path class="st3" d="M312.6,350.6c126.7-19.3,131.2-65.8,154.9-101.8C457.5,303.2,416.4,344.2,312.6,350.6z"/>
	<path class="st19" d="M177.5,198.1c11.5,1.3,23.8-7,18.4-21.3L177.5,198.1z"/>
	<path class="st19" d="M337.5,87.5c5.4,3,9.8,1.5,13.7-2.9L337.5,87.5z"/>
</g>
<g id="lowlights">
	<path class="st2" d="M208.8,289.2c36.4-58.7,66-121.7,91-121.7c-2.8-8-10.5-15-20.5-21.5c-13.5-1.1-25.4-7.8-36.7-16.6
		c15.3,15.1,25.4,23.8,17.3,41.1L208.8,289.2z"/>
	<path class="st2" d="M446.1,131.3c-51.1,5-117.4,0-119,17.1c-7.6-4-14.3-14.2-20.6-27.2l-1.7-20.8c11.2,18.1,22.5,21.6,40.2,24.5
		L446.1,131.3z"/>
	<path class="st2" d="M306.5,168c13,3.5,20.5-0.3,20.6-14c-11.5,2-23.9-1.9-36.9-10C298.6,152,304.8,160,306.5,168z"/>
	<path class="st2" d="M242.6,124.4c26.8,20.5,40.3,19.6,45.2,5c20.9-2.7-5.1-28.9-9.2-60.3C274.9,100.2,264.5,121.1,242.6,124.4z"/>
	<path class="st2" d="M177.5,136.3c9.7-0.9,19,0,27.3,8.4c3.1-8.6,7.8-17.7,16.1-27.9C211.6,128,196.6,134,177.5,136.3z"/>
	<path class="st2" d="M286.4,69.1c17,3.2,32.9,5.1,44.5,1.7c-3.4,3.2-5.5,6.8-2.3,12.1C309.8,77.8,293.3,72.9,286.4,69.1z"/>
	<path class="st2" d="M242.6,350.6c54.6,11,121.9,18.8,194.3,25.1c21.5-12,38.7-27.9,48.9-50.3l-5.4-33.4
		C438,370.7,337.9,356.7,242.6,350.6z"/>
	<path class="st2" d="M494.2,194.9c75.6,145.9-42.4,252.1-189.4,216.3C451.6,407.6,542.1,357.9,494.2,194.9z"/>
	<path class="st2" d="M213.5,366.8c24,25.3,51.6,37.3,81.1,42.4C263.5,395.3,234.6,381.3,213.5,366.8z"/>
	<path class="st2" d="M399.3,425.3c-2.2,22.9-0.6,41.2,6.6,52.3c-67,17.9-128.2,22.9-177.2,0C307.5,486.3,371.2,478.9,399.3,425.3z"
		/>
	<path class="st2" d="M167.4,352.5c-29.7-4.3-52-1.6-53.6,20.9C131.7,365.3,149.6,358.3,167.4,352.5z"/>
	<path class="st2" d="M163.9,379.1c1.2-14.6,7.4-22.6,18.7-24C173.4,362.7,167.1,370.7,163.9,379.1z"/>
	<path class="st2" d="M532.3,107.1c-20.9,0.7-32.7,11-38.6,27.1C501.8,124.4,515,115.4,532.3,107.1z"/>
	<path class="st2" d="M515.2,134.2c-8.5,2.7-17.4,7.6-27.1,14.2c9.9-8.4,19.1-13.6,27.1-12.1"/>
	<path class="st2" d="M498.8,162.4c31.5-12.1,55-26.8,56.7-48.5C539.7,133.2,521.4,149.9,498.8,162.4z"/>
	<path class="st2" d="M321.8,115.1c7.2,0.9,12.6-1.8,13.8-13.3C331.1,109.3,326.5,113.8,321.8,115.1z"/>
	<path class="st2" d="M182.6,176.8c22.9-12.7,32.3-24.5,7.3-34C197.1,153.2,195.6,164.4,182.6,176.8z"/>
	<path class="st2" d="M351.3,80.2c6.4-3.7,11-8,12.5-13.4C367.9,74.6,363.8,79.1,351.3,80.2z"/>
	<path class="st2" d="M207.1,196.3c12.8-10.3,12.9-21,2.9-32.2C213.8,174.9,212.8,185.6,207.1,196.3z"/>
	<path class="st2" d="M355.9,93c8.5-2.9,10.7-6.3,10.3-10C363.6,86,360.1,89.4,355.9,93z"/>
	<path class="st2" d="M414.1,276.2c36.8-35.5,56.8-75.2,42.6-136.3C456,185.5,440.6,230.9,414.1,276.2z"/>
	<path class="st2" d="M236.6,258.7c23.3-26,44.5-52.1,63.1-78.5C277,204.4,255.8,230.4,236.6,258.7z"/>
	<path class="st2" d="M342.6,155.4c1.4,21.1-24.5,34.3-39.8,24.4C323.5,182.2,337.7,175.5,342.6,155.4z"/>
	<path class="st2" d="M345,153.6c18.6-0.1,50.4-8,83.4-16.6C395.1,142.1,363.6,147.3,345,153.6z"/>
	<path class="st2" d="M469.9,222c-16,59.1-57.1,99.7-127.3,118.8C403.5,314,447.3,275.3,469.9,222z"/>
</g>
</svg>
