<?xml version="1.0" encoding="utf-8"?>
<!-- Generator: Adobe Illustrator 23.0.1, SVG Export Plug-In . SVG Version: 6.00 Build 0)  -->
<svg version="1.1" id="Lager_1" xmlns="http://www.w3.org/2000/svg" xmlns:xlink="http://www.w3.org/1999/xlink" x="0px" y="0px"
	 viewBox="0 0 595.5 428" style="enable-background:new 0 0 595.5 428;" xml:space="preserve">
<style type="text/css">
	.st0{fill:#EAB931;stroke:#000000;stroke-width:0.8045;stroke-miterlimit:10;}
	.st1{fill:none;stroke:#000000;stroke-width:0.8045;stroke-miterlimit:10;}
	.st2{opacity:0.2;enable-background:new    ;}
	.st3{opacity:0.5;fill:#FFFFFF;enable-background:new    ;}
	.st4{fill:#F29159;stroke:#000000;stroke-width:2.4136;stroke-miterlimit:10;}
	.st5{fill:#FFF7D5;}
	.st6{fill:#E41F1C;stroke:#000000;stroke-width:0.8045;stroke-miterlimit:10;}
	.st7{fill:#E41E1C;stroke:#000000;stroke-width:1.6091;stroke-miterlimit:10;}
	.st8{fill:none;stroke:#000000;stroke-width:1.6091;stroke-miterlimit:10;}
	.st9{fill:#BF1818;stroke:#000000;stroke-width:1.6091;stroke-miterlimit:10;}
	.st10{fill:#FFFFFF;stroke:#000000;stroke-width:1.6091;stroke-miterlimit:10;}
	.st11{stroke:#000000;stroke-width:1.6091;stroke-miterlimit:10;}
	.st12{fill:#39BACA;stroke:#000000;stroke-width:1.6091;stroke-miterlimit:10;}
	.st13{fill:#AA1A17;stroke:#000000;stroke-width:1.6091;stroke-miterlimit:10;}
	.st14{fill:#F6F6F6;stroke:#000000;stroke-width:1.6091;stroke-miterlimit:10;}
	.st15{fill:#F29159;stroke:#000000;stroke-width:0.8045;stroke-miterlimit:10;}
	.st16{fill:#FFF7D5;stroke:#000000;stroke-width:0.8045;stroke-miterlimit:10;}
	.st17{fill:#1E3663;stroke:#000000;stroke-width:0.8045;stroke-miterlimit:10;}
	.st18{stroke:#000000;stroke-width:0.8045;stroke-miterlimit:10;}
	.st19{opacity:0.2;fill:#FFFFFF;enable-background:new    ;}
</style>
<g id="Hår">
	<path class="st0" d="M327.2,61.3l11.4,177.1c86.7-55.2,172.2-71.1,256.6-46.7c-13.9-0.5-26.8,0.4-35.9,5.7
		c8.1-1.1,18.9,2.9,30.2,7.8c-12.2-1.2-23.5-1.6-31.4,1.6c8.2,0.6,18,2.1,28.6,4.1c-12.8,1.2-25,2.5-33.1,5.3
		c7.8-0.9,20.2,1,33.1,3.1c-15.3,0.4-29.5,1.3-39.6,4.4c8.6-0.4,21.8,2.3,35.5,5.3c-16.4,0.1-32.2,0.8-47,2.5
		c12.6-0.2,27.4,3.2,43.3,7.8c-18.6-1.1-37-0.5-54.7,2.1c12.7-0.1,27.8,2.5,43.7,6.2c-18.5,0.2-37,2.2-55.5,6.2
		c11.4-0.8,26.3,1.3,42.1,4.1c-17.9,0.2-34.8,1.1-49.5,3.3c11,0.5,25.4,4,40.5,8.3c-16.5-0.8-32.2-1.1-45,1.2
		c9.9,1.4,20.9,4.9,32.2,9.1c-14.1-1.2-28.2-0.5-42.5,3.7c9,0,20.1,3.8,31.4,8.3c-13.9-1.5-27.1-2.1-37.2,0.4
		c8.2,0.6,20.5,4,33.1,7.4c-55.1-6.2-102.3,17.6-150.8,71.9c-40.5,40.4-233.3,30.2-291.8,3.3c-107.5-54.5-94.4-111.6,49.5-321
		c10.9-14.6,25-17.6,42.5-9.1c1.5-11.8,6-21.5,17.1-26.2C215.8,11.8,272.3,37.7,327.2,61.3z"/>
	<path class="st1" d="M132.9,75.4C8.2,235.9-8,328,84.2,351.6"/>
</g>
<g id="lowlights-hair">
	<path class="st2" d="M122.8,95.1c-17.4,18.1-41.1,49.7-62.7,96.3c22.1,1.7,57.4,24.8,93.7,49.6L122.8,95.1z"/>
	<path class="st2" d="M81.7,352.7c-41-12.4-74.9-32.5-50.7-115.9C2.5,311.2,28.2,342.9,81.7,352.7z"/>
	<path class="st2" d="M110.8,99.4c15.8-25.2,34-42.1,54.2-52C141.8,49.1,124.2,67.7,110.8,99.4z"/>
	<path class="st2" d="M170.7,44.5c18-8.8,38.9-13.6,62.7-14.3C209.3,27.5,188.2,31.7,170.7,44.5z"/>
	<path class="st2" d="M320.2,383.8c32.7,7.6,52.4-29.1,104.8-69.4C375.3,341.6,344.7,374.9,320.2,383.8z"/>
</g>
<g id="Highlights-hair">
	<path class="st3" d="M141,349.6C33.4,355.2,2.3,306.7,60.1,195.5c-2.1,9.9-2.2,16.7,0,19.8c1.8-6.9,5-11.6,9.3-14.9
		c-2.6,5.2-3,10.2-0.6,15.1c-0.5-3.8,3-8.1,10.2-12.9c-4.8,5.9-5.2,11.8-2.6,17.6c0.7-5.5,3.2-10.2,12-12c-6.4,4.4-6.7,9-2.2,13.9
		c-1.4-5,1.1-9,11.4-10.8c-7.1,3.3-5.8,9.9-2.2,17.6c-1-6.5,2.9-11.2,12.6-13.8c-6.4,6.8-5.7,15.9-3,25.6c0.9-9.5,2.8-18,11.2-21
		c-6.6,4-6.2,13.1-4.1,23.4c0.8-8.5,3.9-15.5,13-18.4c-8.1,4-6.3,12.4-1.6,22c-4-11.6-0.3-17.3,10.9-17.1
		c-13.2,17.4-6.3,42.8,15.3,49.3c-2.7,2.8-8.2,4.1-14.7,4.9c7.8,5.6,16.7,7.1,26.2,6.3c-8.8,5.7-17.3,8.1-25.4,6.1
		c10.5,7.6,27.5,9,45.2,9.9c-18.1,3.6-34.7,6.1-46.9,4.9c13,9,36.6,10,61.1,10.4c-25.4,4.4-49.3,7.4-65.4,3.3
		c15,7.1,36.5,9.7,59.7,11c-23.4,2.5-45.1,3.5-61.5-0.2c16.6,7.1,40.2,9.8,65.6,11.3L141,349.6z"/>
	<path class="st3" d="M342.6,347.7c30.4-44.2,75.3-58.9,126.9-65.5c-9.3-1.3-18.9-1.6-29.4,0l34.9-7.4c-9.5-2.3-19.8-2.1-30.5,0
		c12.5-4.7,26.8-7,41.9-8c-12-1.5-23.5-2.3-32.4,0c10.3-6.6,24.2-8.2,39-8.6c-12.2-1.6-23.8-2.8-30.8,0c13-4.1,25.7-6.5,37.8-6.6
		c-11.1-2.5-21.4-3.7-30.2-2.2c11-4.5,26.7-5.8,43.3-6.3c-12.2-2.3-24.5-4.7-30.8-2.8c10.9-4.4,27.4-5.2,44.7-5.5l-29.1-1.1
		c7.4-5.6,27.2-5.1,43.6-6.3c-15.2-1.4-31.7-3.3-38.2-0.8c11.4-5.2,27.3-6.5,44.4-6.9l-44.1,3.6c11.2-4.9,25.2-6.2,40-6.6l-40,1.6
		c11.9-4.9,26.8-6.3,42.5-6.9c0,0-29.9-3.6-42.5-0.8c15-3.2,29-5.1,40.9-3.9c-12.1-2.9-23.3-4.8-32.7-4.7c9.7-3.2,21.7-5.1,34.3-6.6
		c-12.1-2.3-23.4-3.5-32.7-1.1c10.2-5.5,21.2-7.4,32.7-6.9c-61.5-5.1-130,14.2-204.8,55.7c11.5-6,21-8.5,27.2-5.5
		c-8.7,2.1-31,17-53.1,31.6c19-8.7,38.6-18.1,46.6-13.2c-9,0-38.5,22.5-65.4,42.1c25.3-14.7,51.3-31,62.9-19
		c-13,0-41.5,26-70.3,52.6c22.2-15,47.5-37.6,56.4-22c-8.3-4.9-27.5,18.4-46,39.9c19.2-16.6,39.9-37.3,48.7-26.4
		c-7.7-2-25.4,20.8-41.9,40.8C320.4,353.5,335.9,338.6,342.6,347.7z"/>
	<path class="st3" d="M414.5,214.6c26.9-9.1,51.3-15,70.1-14c-16.2,5.1-31.8,10.4-41.9,19c9.2-3.9,25.2-1.2,40.9,1.1
		c-19.8,3.5-38.7,7.4-51.2,14.6c9-0.8,19.4,2.1,29.9,5.7c-14,1.9-27.3,4.2-37.3,8.6c8.9-2.3,21.5,1.1,34.2,4.7
		c-21.1-1.1-56.7,7.4-93.9,16.8L414.5,214.6z"/>
	<path class="st3" d="M104.3,341.2c-48.4-7-83.4-27.8-49.3-120.4c-1.4,13.1,0.1,24.2,5.2,32.7c-1.4-10,2.7-18.4,12.7-24.8
		c-4.6,8-1.4,17.8,7.4,28.7c-1.5-7.8,2.6-15.1,15-21.8c-3.1,9,1.8,16.2,6.2,20.6c6.6,23.6,14.6,44,31.4,45.1l-31.4,2.7l31.4,13.9
		c-10.5,2.1-20.5,2-29.7-1.1c5.7,6.1,13,9.8,22.2,10.4c-8.6,2.5-18.7,0.9-29.6-2.8c9.1,5.2,18.2,9.4,26.4,9.1
		c-8.1,4.4-16.2,1.9-24.5-4.1c5.8,6.1,12.1,10.7,19.4,11.9L104.3,341.2z"/>
</g>
<g id="face">
	<path class="st4" d="M324.8,60.6c-116-78.5-283,20.3-197.6,168.3c-2.4,15-0.1,29,8.8,41.1c-115-28.5-91.3,140.3,19.2,21.9
		c4.7,3.8,9.9,5.7,15.2,6.8c5,26.5,7.7,56.1,8.9,88c43.3,19.8,95.1,15.5,150.8,0c-7.7-17.6-9.3-34.1-4.5-49.2
		c99.4-37.4,111.8-103.3,71.9-186.5c1.1-5,1-11.1,0.4-17.6C498.3,98.7,424.4,33,385.2,102C370.4,80.1,349.6,67.3,324.8,60.6z"/>
</g>
<g id="Linjer_face">
	<path class="st5" d="M166.4,239.3l72.5-99.8h26.6l7.9-22.6l93.4-12.3l6.9,21.7c4,12.9,5,26.3,3.8,40c-7.4,23.9-15.9,45.9-29.1,59.9
		c-22.4,23-49.2,40.2-84.2,46.8c-26.6-0.6-51.5-2.9-69.7-11.6C185,256.9,175.6,248.9,166.4,239.3z"/>
	<path class="st6" d="M203.1,188.8l37-51.2c0,4,23.4,4,23.4,0c6.5-4.9,9.6-11.8,9.8-20.6l48.3-4c-11.8,4.7-18.5,10.6-13.4,19.7
		c-13-7.9-27.3-6.1-27,18.3c-15.8-11.1-32.4-1.9-25.6,19.7c-16.9-14.4-33.8-7.4-29.4,18.2C219.8,184.2,211.8,185.4,203.1,188.8z"/>
	<path class="st7" d="M165.2,240.9c118.3,66.1,137.4-9.5,170-13.3c6.2-28.5,54.2-39.9,32.7-120C430.9,220.6,255.7,341.2,165.2,240.9
		z"/>
	<path class="st7" d="M368,104.6c-43.3,6-106.8,0.2-103.5,16.2c0.2,11.5-5.4,15.9-15.5,14.7c-7-2.1-13.9-0.2-20.7,6.2
		c-27.5,31.6-42.1,69.8-63.7,100.1c29.9-40.5,64.3-76.7,77.7-97.9c16.5,11.2,35.4-5.9,34.2-20.4C289.3,124.5,331.8,110.6,368,104.6z
		"/>
	<path class="st8" d="M164.5,250c0.6-5.2,0-10.2-1.4-16.3"/>
	<path class="st8" d="M373.7,104.8c-4.4,0.3-9.8-0.3-11.4-2.3"/>
	<path class="st8" d="M226.3,113.9c8.1,4.5,14.2,11.7,18.2,21.6"/>
	<path class="st8" d="M265.5,121.3c-6.5-2.7-13-9.9-19.5-21.4"/>
	<path class="st8" d="M192,98.5c23,16.3,35.4,18.6,37.8,8.1"/>
	<path class="st8" d="M229.9,68.2c7.4,15.6,14.6,31,7.6,31.6c12.1-2.6,3.4-27,2.8-29.2"/>
	<path class="st8" d="M255.7,86.1c-3.5-9.5-8.1-11.8-13.5-8.9"/>
	<path class="st8" d="M257.6,92.4c9.9,1.1,10.9-1.4,12.9-11.4c2.7-19.7-18.6-12.9-44.3-27.4c-21.5-32.2-71.9-3.6-45.5,37.7
		c-4.1,8.6-34.1,33.4,3.3,38.8c13.6,0.5,18.5-2.6,23.1-11.8"/>
	<path class="st8" d="M205.9,113.9c-8.2,4.6-13.9-1-13.9-14.1"/>
	<path class="st9" d="M139.8,158c13.1,17.8,55.9,6.6,34.3-30.3"/>
	<path class="st10" d="M168.9,124.8c20.7,13.5-0.5,52.3-29.1,33.3L168.9,124.8z"/>
	<path class="st11" d="M159.9,166.4l-15.2,8.3c16.6,0.4,27.2-3.9,29.6-14.4"/>
	<path class="st12" d="M165.6,116.9c-35-25.1-59.1,15-36.2,39.3h11.3l28.1-31.5C166.2,122.4,165.4,119.8,165.6,116.9z"/>
	<polygon class="st11" points="161.8,132.9 132.7,165.1 117.1,165.1 	"/>
	<path class="st12" d="M265.6,68.2c-2.2-26.1,27.9-28.5,35.8-8.3L265.6,68.2z"/>
	<path class="st13" d="M269.2,68.2C283.8,87,292.8,83,297.6,61"/>
	<path class="st14" d="M268.3,67.6c6.8,13.4,30.5,8.4,28.5-6.6L268.3,67.6z"/>
	<polygon class="st11" points="287.2,63.2 301.5,60 308.4,49.1 	"/>
	<path class="st11" d="M285.3,80.2c7.8,1.9,12.8-1.2,16.9-6.1L285.3,80.2z"/>
	<line class="st8" x1="190.3" y1="282.6" x2="249" y2="294.2"/>
	<path class="st8" d="M279.3,296.7l71.9,7.4c23-9.4,33.4-25.2,40-43l-3.3-29.8"/>
	<line class="st8" x1="387.6" y1="211.6" x2="391.3" y2="143.9"/>
	<path class="st8" d="M88.5,299.5c0-23.1,30.7-24.1,56.2-16.9c-8.8,2.8-15.7,6.4-14.5,13.6"/>
	<path class="st8" d="M424.4,81.1c-16.2,2.5-27.2,13.2-33.1,32c6.2-5.9,11.7-8.5,16.6-8.3"/>
	<path class="st15" d="M325.5,337.5c-26.8,6.4-54.9,4.4-83.8-5.3"/>
	<path class="st15" d="M385.1,102.1"/>
</g>
<g id="Teeth_n_Eyes">
	<path class="st16" d="M170.3,239.6c44.6-10.7,83.4-27.4,113.1-54.1"/>
	<path class="st16" d="M365.3,104.9c-8,11.5-16.1,23-30,34.4"/>
	<path class="st16" d="M283.4,155.1l13.9,18.1c-0.2,1.9-1.6,3-3.5,3.7"/>
	<path class="st16" d="M299.6,171c0.1,0.7-0.7,1.5-2.3,2.2"/>
	<path class="st17" d="M144.7,151.8c13.8,8.4,24.2-4.8,14.8-16.4L144.7,151.8z"/>
	<path class="st17" d="M270.8,66.9c3.6,7.2,16.5,4.1,14.6-3.2L270.8,66.9z"/>
	<path class="st18" d="M147.7,149c7,6.1,16.2-5.3,9.4-10.7L147.7,149z"/>
	<path class="st18" d="M273.2,66.5c1,4.2,9.3,4.2,8.5-1.9L273.2,66.5z"/>
</g>
<g id="highlights">
	<path class="st3" d="M161.8,179.8c-11.4,20-24.2,35.5-28.9,50.4c-3.1,15.4,0.9,28.2,9.5,39.4C139.9,244,149.1,212.7,161.8,179.8z"
		/>
	<path class="st3" d="M132.9,272c-22.6-1.1-46.2-6.7-62.9,17.1C87.7,276.6,110.4,274.5,132.9,272z"/>
	<path class="st3" d="M142.7,200.7c-8.3,6.6-13.1,14.6-14.4,23.9c-25.3-41.8-23.8-82.3-11.2-122.1
		C114.8,149.6,105.1,206.6,142.7,200.7z"/>
	<path class="st3" d="M182.2,85c-8.8-18.6-4.8-32.3,7.1-37.1C199,57.3,195.5,74.1,182.2,85z"/>
	<path class="st3" d="M174.3,123.8c-7.4-2.7-7.2-7.7-1.1-14.8C171.8,113,171.8,117.8,174.3,123.8z"/>
	<path class="st3" d="M226.8,57.3c7.1,6.1,16.9,8.7,27.4,10L226.8,57.3z"/>
	<path class="st3" d="M218.2,38.2c22.5-1.6,43.5-0.8,61.1,4.9L218.2,38.2z"/>
	<path class="st3" d="M196.9,193c9.1-18.8,20.3-34.9,33-49.1L196.9,193z"/>
	<path class="st3" d="M247.1,137.1c9.5,1.5,15.8-1.1,18.3-8.6C263.9,135.9,259.5,140.5,247.1,137.1z"/>
	<path class="st3" d="M232.9,159.6l9.8-13c4.1,2,8.1,3.4,12.1,2.3C247,150.4,239.6,153.5,232.9,159.6z"/>
	<path class="st3" d="M276.8,133.8c1.4-2.5,1.8-5.3,1.4-8.3c2.4,0.8,8.1-0.5,13.6-1.8C285.1,126.1,279.6,129.1,276.8,133.8z"/>
	<path class="st3" d="M301.8,251.4c14.9-13,27.8-22.6,33.5-20L301.8,251.4z"/>
	<path class="st3" d="M338,228.6c1-8.3,6.2-16.8,14.8-25.7L338,228.6z"/>
	<path class="st3" d="M130,150.9c-10.9-16-7.1-27.5,4.6-36.4C129.4,126.6,127.2,138.8,130,150.9z"/>
	<path class="st3" d="M268.3,64.5c-0.6-6.2,2.2-11.2,8.5-14.6C273.5,54,270.7,58.9,268.3,64.5z"/>
	<path class="st3" d="M267.1,119.4c-0.1-2.6,1.6-3.9,5.1-3.9L267.1,119.4z"/>
	<path class="st3" d="M229.9,112.2c2.2-2.6,3.3-5.9,3-10c2.8,0.7,6.2-0.4,10-2.2C237.3,103.6,233,107.7,229.9,112.2z"/>
	<path class="st3" d="M348.5,74.1c-8.6-5.3-16.7-8.8-24.3-9.6c-9.3,1.7-18.3,8.7-27.4,16.3C315.9,71.1,332.8,70.2,348.5,74.1z"/>
	<path class="st3" d="M387.6,103.7c10.6-17.8,23-29.2,39-28.2C412.9,79.9,399.8,89,387.6,103.7z"/>
	<path class="st3" d="M181.6,381.5c0-28.3-2.1-55.2-7-80.2c19.4,17.6,42.9,28.2,69.3,33.5C211.6,332.4,189.6,346.1,181.6,381.5z"/>
	<path class="st3" d="M250.8,281.1c101.4-15.6,105-53.2,123.9-82.3C366.8,242.7,333.9,275.9,250.8,281.1z"/>
	<path class="st19" d="M142.7,157.7c9.2,1.1,19-5.7,14.7-17.2L142.7,157.7z"/>
	<path class="st19" d="M270.8,68.2c4.3,2.4,7.8,1.2,11-2.3L270.8,68.2z"/>
</g>
<g id="lowlights">
	<path class="st2" d="M167.8,231.4c29.1-47.5,52.8-98.4,72.8-98.4c-2.2-6.5-8.4-12.1-16.4-17.4c-10.8-0.9-20.3-6.3-29.4-13.4
		c12.2,12.2,20.3,19.3,13.8,33.2L167.8,231.4z"/>
	<path class="st2" d="M357.7,103.7c-40.9,4-93.9,0-95.2,13.8c-6.1-3.2-11.4-11.5-16.5-22l-1.4-16.8c9,14.6,18,17.5,32.2,19.8
		L357.7,103.7z"/>
	<path class="st2" d="M245.9,133.4c10.4,2.8,16.4-0.2,16.5-11.3c-9.2,1.6-19.1-1.5-29.5-8.1C239.6,120.4,244.6,126.9,245.9,133.4z"
		/>
	<path class="st2" d="M194.8,98.1c21.4,16.6,32.2,15.9,36.2,4c16.7-2.2-4.1-23.4-7.4-48.8C220.7,78.5,212.3,95.4,194.8,98.1z"/>
	<path class="st2" d="M142.7,107.7c7.8-0.7,15.2,0,21.8,6.8c2.5-7,6.2-14.3,12.9-22.6C170,101,158,105.8,142.7,107.7z"/>
	<path class="st2" d="M229.9,53.3c13.6,2.6,26.3,4.1,35.6,1.4c-2.7,2.6-4.4,5.5-1.8,9.8C248.6,60.4,235.4,56.4,229.9,53.3z"/>
	<path class="st2" d="M194.8,281.1c43.7,8.9,97.5,15.2,155.5,20.3c17.2-9.7,31-22.6,39.1-40.7l-4.3-27
		C351.2,297.3,271.1,286,194.8,281.1z"/>
	<path class="st2" d="M396.1,155.1c60.5,118-33.9,203.9-151.6,175C362.1,327.2,434.5,287,396.1,155.1z"/>
	<path class="st2" d="M171.5,294.2c19.2,20.5,41.3,30.2,64.9,34.3C211.5,317.2,188.4,305.9,171.5,294.2z"/>
	<path class="st2" d="M320.2,341.5c-1.8,18.5-0.5,33.3,5.3,42.3c-53.6,14.5-102.6,18.5-141.8,0C246.7,390.8,297.7,384.8,320.2,341.5
		z"/>
	<path class="st2" d="M134.6,282.6c-23.8-3.5-41.6-1.3-42.9,16.9C106.1,293,120.4,287.3,134.6,282.6z"/>
	<path class="st2" d="M131.8,304.1c1-11.8,5.9-18.3,15-19.4C139.4,290.8,134.4,297.3,131.8,304.1z"/>
	<path class="st2" d="M426.6,84.1c-16.7,0.6-26.2,8.9-30.9,21.9C402.2,98.1,412.8,90.8,426.6,84.1z"/>
	<path class="st2" d="M412.9,106c-6.8,2.2-13.9,6.1-21.7,11.5c7.9-6.8,15.3-11,21.7-9.8"/>
	<path class="st2" d="M399.8,128.8c25.2-9.8,44-21.7,45.4-39.2C432.5,105.2,417.9,118.7,399.8,128.8z"/>
	<path class="st2" d="M258.2,90.6c5.8,0.7,10.1-1.5,11-10.8C265.6,85.9,261.9,89.5,258.2,90.6z"/>
	<path class="st2" d="M146.8,140.5c18.3-10.3,25.8-19.8,5.8-27.5C158.4,121.4,157.2,130.4,146.8,140.5z"/>
	<path class="st2" d="M281.8,62.3c5.1-3,8.8-6.5,10-10.8C295.1,57.8,291.8,61.4,281.8,62.3z"/>
	<path class="st2" d="M166.4,156.2c10.2-8.3,10.3-17,2.3-26C171.8,138.9,171,147.6,166.4,156.2z"/>
	<path class="st2" d="M285.5,72.7c6.8-2.3,8.6-5.1,8.2-8.1C291.6,67,288.8,69.8,285.5,72.7z"/>
	<path class="st2" d="M332,220.9c29.4-28.7,45.5-60.8,34.1-110.3C365.6,147.5,353.3,184.2,332,220.9z"/>
	<path class="st2" d="M190,206.7c18.6-21,35.6-42.1,50.5-63.5C222.3,162.8,205.4,183.8,190,206.7z"/>
	<path class="st2" d="M274.8,123.2c1.1,17.1-19.6,27.7-31.8,19.7C259.5,144.8,270.9,139.4,274.8,123.2z"/>
	<path class="st2" d="M276.8,121.7c14.9-0.1,40.3-6.5,66.7-13.4C316.8,112.4,291.6,116.6,276.8,121.7z"/>
	<path class="st2" d="M376.7,177c-12.8,47.8-45.7,80.7-101.9,96.1C323.6,251.5,358.6,220.1,376.7,177z"/>
</g>
<g id="brows">
	<path class="st0" d="M150.6,103.2c-22.6-1.2-34.6,9.9-39.8,29.4C101.4,99.4,123.6,85.2,150.6,103.2z"/>
	<path class="st0" d="M262.4,49.9c8.2-16.7,18.2-22.4,32.2-2.6C283.2,40.2,272,42.3,262.4,49.9z"/>
</g>
</svg>
